<svg width="147" height="28" viewBox="0 0 147 28" fill="none" xmlns="http://www.w3.org/2000/svg">
<path d="M3.65793 21.5C2.61533 21.5024 1.65216 20.8988 1.1368 19.92C0.628879 18.9473 0.659337 17.7512 1.216 16.8101L6.40785 8.00532C6.94884 7.04193 7.92796 6.4674 8.97078 6.50143C10.0128 6.5284 10.9607 7.15937 11.4512 8.15262C11.9352 9.14096 11.8747 10.3301 11.295 11.2578L6.10646 20.0626C5.5717 20.9625 4.64805 21.5047 3.65793 21.5Z" fill="#F62B54"/>
<path d="M12.6284 21.5C11.5812 21.5 10.6176 20.8953 10.1116 19.9236C9.60474 18.9534 9.6352 17.7604 10.1908 16.8219L15.3729 8.03705C15.9061 7.05981 16.8882 6.47177 17.9382 6.50104C18.9942 6.52599 19.9512 7.16391 20.4352 8.16178C20.9159 9.15965 20.8455 10.3559 20.2482 11.2813L15.0671 20.0661C14.534 20.9622 13.6146 21.5028 12.6284 21.5Z" fill="#FFCC00"/>
<path d="M22.7517 21.5C24.4086 21.5 25.7517 20.1569 25.7517 18.5C25.7517 16.8431 24.4086 15.5 22.7517 15.5C21.0949 15.5 19.7517 16.8431 19.7517 18.5C19.7517 20.1569 21.0949 21.5 22.7517 21.5Z" fill="#00CA72"/>
<path d="M144.269 15.6015C145.109 15.6015 145.611 16.1803 145.611 17.1283V20.3769H146.752V17.054C146.752 15.4419 145.968 14.5072 144.495 14.5072C143.918 14.5072 143.003 14.6602 142.457 15.688C142.199 15.0704 141.611 14.6402 140.928 14.5682C140.717 14.5307 140.501 14.5184 140.287 14.5316C139.818 14.5682 138.983 14.8509 138.671 15.4918V14.6303H137.529V20.3769H138.671V17.2758C138.671 16.0694 139.485 15.6015 140.301 15.6015C141.065 15.6015 141.567 16.1681 141.567 17.1161V20.3769H142.702V17.2758C142.702 16.3156 143.297 15.5904 144.269 15.6015ZM133.339 19.4168C133.86 19.4278 134.364 19.226 134.729 18.8602C135.095 18.4943 135.289 17.9964 135.27 17.4853C135.27 16.3278 134.391 15.6015 133.339 15.6015C132.285 15.6015 131.408 16.3278 131.408 17.4853C131.387 17.9953 131.582 18.4921 131.945 18.8568C132.309 19.2227 132.81 19.4256 133.33 19.4168H133.339ZM133.339 20.4945C131.671 20.4945 130.279 19.3003 130.279 17.4787C130.279 15.657 131.671 14.5005 133.339 14.5005C135.007 14.5005 136.41 15.657 136.41 17.4787C136.41 19.3003 134.999 20.5 133.331 20.5L133.339 20.4945ZM124.404 17.4787L124.393 17.4853C124.393 15.6636 125.822 14.5072 127.501 14.5005C128.354 14.4845 129.174 14.8198 129.758 15.423L128.893 16.1371C128.522 15.7839 128.021 15.5892 127.501 15.596C126.449 15.596 125.534 16.3222 125.534 17.4787C125.534 18.2603 126.013 18.9644 126.748 19.2637C127.484 19.5631 128.331 19.3968 128.893 18.8446L129.771 19.5587C129.185 20.1682 128.36 20.5083 127.501 20.4945C125.834 20.4945 124.404 19.3003 124.404 17.4787ZM120.752 19.2737C120.749 19.0708 120.83 18.8753 120.976 18.7301C121.123 18.585 121.323 18.5022 121.532 18.4998C121.741 18.5022 121.941 18.585 122.087 18.7301C122.234 18.8753 122.315 19.0708 122.312 19.2737C122.291 19.6776 121.949 19.9958 121.532 20C121.115 19.9958 120.773 19.6776 120.752 19.2737Z" fill="#333333"/>
<path d="M123.667 7.72661H119.562L116.685 15.2596L113.823 7.72661H109.719L114.709 19.6301L111.605 27.5H115.679L123.667 7.72661ZM98.704 14.3475C98.704 16.2492 100.341 17.5006 101.949 17.5006C103.529 17.5006 105.081 16.3361 105.081 14.3463C105.081 12.3565 103.529 11.1908 101.949 11.1908C100.341 11.1908 98.704 12.4434 98.704 14.3463V14.3475ZM105.081 20.9942V19.488C104.249 20.7676 102.307 21.2513 101.311 21.2513C98.0116 21.2513 94.7115 18.61 94.7115 14.3463C94.7115 10.0838 98.0105 7.44252 101.311 7.44252C102.142 7.44252 104.084 7.72426 105.081 9.20339V7.7313H108.907V20.9965L105.081 20.9953V20.9942ZM93.6227 20.9942H89.7966V19.346C89.1574 20.5669 87.6074 21.2783 85.9984 21.2783C82.6705 21.2783 79.7311 18.5794 79.7311 14.4003C79.7311 10.1425 82.6705 7.44017 85.9984 7.44017C87.6051 7.44017 89.1597 8.12104 89.7966 9.34309V0.5H93.6227V20.9942ZM89.7134 14.317C89.7134 12.3283 88.2998 11.1627 86.7197 11.1627C85.0829 11.1627 83.7236 12.4129 83.7236 14.317C83.7236 16.2821 85.0829 17.5264 86.7185 17.5264C88.3287 17.5288 89.7134 16.221 89.7134 14.317ZM70.2712 13.9742C70.2712 11.9574 71.2977 11.2753 72.6559 11.2753C73.9585 11.2753 74.9018 12.1558 74.9018 13.9167V20.9918H78.7555V13.0656C78.7555 9.28791 76.9246 7.44017 74.0129 7.44017C72.4883 7.44017 70.9636 8.32061 70.2701 9.65652V7.72661H66.4186V20.9918H70.2712V13.9742ZM58.5932 21.2196C54.9336 21.2196 51.8809 18.4926 51.8809 14.3158C51.8809 10.1367 54.9302 7.43665 58.5932 7.43665C62.2563 7.43665 65.3321 10.1367 65.3321 14.3158C65.3321 18.4949 62.2528 21.2207 58.5932 21.2207V21.2196ZM58.5932 17.3574C60.1999 17.3574 61.5327 16.1623 61.5327 14.317C61.5327 12.5267 60.2011 11.3047 58.5932 11.3047C57.8108 11.2923 57.0577 11.6068 56.5103 12.1746C55.9598 12.7453 55.6607 13.5183 55.6815 14.317C55.6827 16.1647 57.0131 17.3574 58.5932 17.3574ZM44.9721 11.2765C46.1084 11.2765 47.1071 12.1863 47.1071 13.9178V20.9942H50.9331V13.46C50.9331 9.45461 49.0155 7.43783 45.9419 7.43783C45.0288 7.43783 43.3088 7.71956 42.0604 9.79504C41.3391 8.26074 39.9532 7.46483 37.905 7.46483C36.4526 7.45732 35.13 8.313 34.5228 9.653V7.72778H30.6667V20.993H34.5194V13.9742C34.5194 11.9574 35.6013 11.2753 36.7653 11.2753C37.8749 11.2753 38.8713 12.1558 38.9002 13.8321V20.993H42.754V13.9742C42.754 12.0454 43.7527 11.2777 44.9721 11.2777V11.2765Z" fill="#333333"/>
</svg>
