<svg width="147" height="22" viewBox="0 0 147 22" fill="none" xmlns="http://www.w3.org/2000/svg">
<path d="M139.393 9.66264V12.6575H141.532V15.6288C141.538 15.8564 141.528 16.0993 141.496 16.3083L141.478 16.4098C141.474 16.4324 141.47 16.4557 141.465 16.4795L141.448 16.5526C141.444 16.565 141.441 16.5776 141.437 16.5902L141.412 16.6673C141.22 17.2144 140.641 17.9078 139.339 17.9078C137.953 17.9078 137.397 17.1119 137.244 16.5526L137.226 16.4795L137.213 16.4098C137.175 16.1807 137.158 15.8943 137.158 15.6288V6.24383C137.158 5.94875 137.176 5.62887 137.231 5.36828L137.267 5.20993C137.27 5.19896 137.273 5.18781 137.276 5.1765L137.296 5.10676C137.3 5.09484 137.304 5.08278 137.308 5.07059L137.334 4.99604C137.532 4.47751 138.055 3.7869 139.328 3.7869C140.31 3.7869 140.839 4.18072 141.122 4.58776L141.172 4.66414C141.188 4.68959 141.203 4.715 141.217 4.74027L141.256 4.8156L141.291 4.88956L141.321 4.96161L141.347 5.03117L141.369 5.0977L141.387 5.16064L141.402 5.21942L141.414 5.2735C141.42 5.3004 141.425 5.32895 141.429 5.35863L141.442 5.45056C141.444 5.46627 141.445 5.48214 141.447 5.49809L141.46 5.64224L141.469 5.78048L141.476 5.96898L141.478 6.06558V7.20519H146.734L146.735 6.49578L146.739 6.24207L146.738 6.0454L146.733 5.81641L146.729 5.69313L146.719 5.50097L146.706 5.30412L146.694 5.17252C146.339 1.70569 143.69 0.371853 140.467 0.139754L140.252 0.125902L140.034 0.115246C139.925 0.110706 139.816 0.107339 139.706 0.105107L139.485 0.102146C139.448 0.101779 139.411 0.101779 139.374 0.101779L139.153 0.103266C139.116 0.103763 139.079 0.104387 139.042 0.105137L138.823 0.111177L138.605 0.120334L138.389 0.132675L138.174 0.148267C138.103 0.154013 138.032 0.160312 137.961 0.167175L137.751 0.189466C137.716 0.193467 137.681 0.197611 137.646 0.201901L137.439 0.229391C136.957 0.297647 136.494 0.394884 136.055 0.524888L135.868 0.582621C133.831 1.24 132.351 2.63766 132.047 5.17252L132.016 5.4539L131.995 5.67175L131.975 5.90016L131.958 6.1274C131.948 6.2759 131.942 6.4158 131.942 6.5315L131.943 15.2755L131.944 15.384L131.949 15.549L131.954 15.6646L131.961 15.7881L131.971 15.9224L131.983 16.0704L132.006 16.3242L132.025 16.519C132.321 19.7406 134.803 21.1737 137.839 21.5118L138.052 21.5336C138.408 21.5671 138.771 21.5859 139.139 21.5913L139.36 21.5929L139.582 21.5913C139.951 21.5859 140.316 21.5671 140.673 21.5336L140.887 21.5118C143.934 21.1737 146.399 19.7406 146.699 16.519L146.724 16.2349L146.742 15.9945L146.758 15.7252L146.768 15.4932L146.776 15.1647V9.66264H139.393ZM103.149 0.654178H97.8703V15.8453C97.8786 16.11 97.8703 16.4074 97.8239 16.6255L97.8084 16.6916L97.7891 16.762C97.7821 16.7861 97.7743 16.8108 97.7659 16.836L97.7383 16.913C97.5391 17.4353 97.0318 18.1169 95.8182 18.1169C94.6801 18.1169 94.1604 17.5018 93.9428 16.9925L93.9109 16.913C93.906 16.9 93.9013 16.887 93.8967 16.8742L93.8718 16.7986L93.8513 16.7263C93.8482 16.7146 93.8453 16.703 93.8425 16.6916L93.8279 16.6255C93.7751 16.4074 93.7684 16.11 93.7751 15.8453V0.654178H88.4981V15.3738L88.4971 15.4922L88.499 15.6991L88.5063 16.0036L88.5208 16.3736L88.5309 16.5599L88.5378 16.6588L88.5444 16.7315C88.803 19.4548 90.427 20.8724 92.7203 21.4655L92.9157 21.5137C93.3425 21.6139 93.791 21.6869 94.257 21.7356L94.4733 21.7564L94.692 21.7738L94.913 21.7879C95.0241 21.7942 95.136 21.7992 95.2486 21.803L95.475 21.8091L95.7033 21.8122C95.7415 21.8125 95.7798 21.8125 95.8182 21.8125L96.0479 21.811C96.086 21.8105 96.124 21.8099 96.162 21.8091L96.3888 21.803C96.5016 21.7992 96.6137 21.7942 96.725 21.7879L96.9463 21.7738L97.1654 21.7564L97.382 21.7356C100.469 21.4131 102.785 20.0302 103.104 16.7315L103.108 16.6987L103.117 16.6123L103.13 16.4399L103.141 16.2314L103.148 16.0806L103.154 15.8493L103.156 15.6991L103.155 15.5579L103.152 15.4306C103.151 15.4109 103.15 15.3919 103.149 15.3738V0.654178ZM54.6476 0.654178L52.0144 16.7057L49.3828 0.654178H40.868L40.4164 21.1887H45.6329L45.7741 2.17928L49.3633 21.1887H54.6559L58.2483 2.17928L58.3901 21.1887H63.6197L63.1528 0.654178H54.6476ZM23.1216 0.654178L19.2553 21.1887H24.8934L27.8069 2.17928L30.6504 21.1887H36.2494L32.3992 0.654178H23.1216ZM121.597 17.1869L116.682 0.654178H108.936V20.9746H114.06L113.763 3.91294L119.041 20.9746H126.47V0.654178H121.312L121.597 17.1869ZM74.2031 5.99835C74.1103 5.59281 74.1371 5.16197 74.1851 4.93679C74.1987 4.87703 74.2147 4.81678 74.2337 4.75662L74.2643 4.66652C74.4725 4.09725 74.9597 3.56252 76.0767 3.56252C77.2822 3.56252 77.9889 4.30186 77.9889 5.41141V6.66703H83.1347V5.2358C83.1347 2.00593 80.9861 0.763481 78.6902 0.328013L78.5013 0.294014L78.3118 0.263504L78.1223 0.236337L77.9328 0.212367L77.7436 0.191449L77.555 0.173437C77.4923 0.167902 77.4296 0.162826 77.3672 0.158186L77.1805 0.14555L76.9951 0.135382L76.8112 0.127539L76.6292 0.121873L76.4492 0.118239L76.1836 0.116281L76.0665 0.116687L75.8337 0.119955C75.7951 0.120775 75.7566 0.121733 75.7181 0.122831L75.4883 0.1311C75.4121 0.13442 75.3362 0.138308 75.2607 0.142772L75.0353 0.1579C71.8961 0.394153 69.4463 1.66279 68.9563 4.63778C68.8113 5.54377 68.7754 6.34798 69.0061 7.3742C69.3693 9.06056 70.7973 10.2606 72.4363 11.2671L72.6901 11.4205C72.7326 11.4458 72.7752 11.471 72.818 11.4961L73.0754 11.6453L73.3344 11.7921L73.5943 11.9366L73.9845 12.1498L75.0095 12.7024L75.2586 12.8383L75.5033 12.9737L75.7432 13.1089L75.9774 13.2442C77.0945 13.8982 77.9896 14.5616 78.3116 15.3546C78.4899 15.8257 78.4509 16.4197 78.3647 16.7986L78.3499 16.8597C78.3286 16.9507 78.3019 17.0419 78.2682 17.1315L78.2322 17.2205C77.9951 17.7654 77.4769 18.23 76.3383 18.23C75.0395 18.23 74.2577 17.4954 74.2577 16.3882L74.2561 14.4175H68.7175V15.984C68.7175 19.6607 71.0885 21.2578 74.058 21.732L74.279 21.7651C74.4271 21.7858 74.5765 21.8038 74.727 21.8193L74.9537 21.8406C75.219 21.8632 75.4875 21.8781 75.758 21.886L75.9904 21.891C76.0292 21.8916 76.068 21.892 76.1069 21.8923L76.2236 21.8927C76.3012 21.8927 76.3786 21.8921 76.4557 21.891L76.686 21.8861C76.7243 21.885 76.7624 21.8837 76.8005 21.8824L77.0279 21.8723C77.1034 21.8684 77.1785 21.864 77.2533 21.8589L77.4765 21.842C77.6246 21.8295 77.7711 21.8147 77.916 21.7975L78.1321 21.7698L78.3456 21.7385C78.4164 21.7274 78.4867 21.7158 78.5565 21.7035L78.7645 21.6646C81.2782 21.1691 83.1485 19.8255 83.5241 17.2422C83.5758 16.8569 83.6076 16.5011 83.6248 16.1759L83.6341 15.9636C83.6353 15.9289 83.6363 15.8947 83.6372 15.8608L83.6406 15.6622V15.4729L83.6374 15.2928L83.6315 15.1221L83.623 14.9608C83.6215 14.9348 83.6198 14.9091 83.618 14.8838L83.6066 14.7368L83.5936 14.5995L83.5794 14.4718L83.5564 14.2986L83.5327 14.1476L83.5018 13.9812L83.4874 13.9131C83.1249 12.1249 81.5337 10.8619 79.7659 9.82219L79.5123 9.67515L79.257 9.53095L79.0006 9.38941L78.6155 9.18163L78.1049 8.91203L77.234 8.45632L76.8756 8.26557C76.8365 8.24449 76.7975 8.22344 76.7588 8.20242L76.5295 8.0766L76.3067 7.95129C75.2099 7.32562 74.3808 6.7113 74.2031 5.99835ZM6.32389 5.94798C6.22916 5.55989 6.24397 5.15163 6.29257 4.9144L6.31268 4.82557L6.33552 4.73769C6.50935 4.12108 6.98463 3.48552 8.21308 3.48552C9.43385 3.48552 10.1526 4.23199 10.1526 5.3505V6.62141H15.3587V5.17884C15.3587 2.09667 13.4098 0.802247 11.232 0.295904L11.0421 0.253836C10.8834 0.220394 10.7238 0.190938 10.5639 0.165088L10.3719 0.135774L10.1799 0.109775L9.98819 0.0869461L9.79691 0.0671401C9.73326 0.0610258 9.66973 0.0553909 9.60636 0.0502113L9.4168 0.0360135L9.22846 0.0244008L9.04162 0.015227L8.85651 0.00834607L8.67339 0.00361199L8.40298 0H8.31411C8.23606 0 8.15832 0.000536641 8.08088 0.00161862L7.84956 0.00650923C7.696 0.0108719 7.54377 0.0174507 7.39302 0.0263151L7.16801 0.0413346C7.13069 0.0441265 7.09348 0.0470634 7.05636 0.0501463L6.83484 0.0704064C6.76141 0.0777499 6.68839 0.0856867 6.61579 0.0942252L6.39929 0.121655C6.21996 0.146032 6.04341 0.174225 5.86989 0.20637L5.66313 0.246849L5.45939 0.291174L5.25875 0.339396C5.1924 0.356126 5.12659 0.373514 5.06133 0.391569L4.86722 0.447744C2.8468 1.05877 1.39078 2.34028 1.02323 4.56395C0.871534 5.48444 0.845537 6.29419 1.06477 7.33175C1.45073 9.12475 3.02489 10.3734 4.786 11.4226L5.04494 11.5747C5.08828 11.5999 5.1317 11.6249 5.17519 11.6498L5.43683 11.7982L5.83081 12.0165L6.35528 12.3012L7.12889 12.7183L7.50469 12.9241L7.87003 13.1292L8.10661 13.2659C8.14553 13.2887 8.18418 13.3115 8.22255 13.3343L8.44927 13.4715C9.41613 14.0673 10.1734 14.681 10.4657 15.4005C10.6571 15.8683 10.6124 16.4621 10.5219 16.8533L10.5064 16.9166C10.4841 17.0066 10.4566 17.0968 10.4227 17.1855L10.3866 17.2737C10.1434 17.8282 9.62143 18.3038 8.46795 18.3038C7.16409 18.3038 6.38419 17.5565 6.38419 16.4341L6.37695 14.4581H0.776123V16.0283C0.776123 20.4358 4.1538 21.8844 7.89444 21.9933L8.12868 21.9983L8.3637 22L8.59609 21.9984C8.71183 21.9968 8.8269 21.9939 8.94122 21.9898L9.16887 21.9799C9.28219 21.9741 9.39472 21.9671 9.50643 21.9587L9.7287 21.9402L9.94866 21.9183C10.0216 21.9103 10.0941 21.9018 10.1662 21.8927L10.3812 21.8636C10.4524 21.8533 10.5232 21.8423 10.5936 21.8308L10.8032 21.7943C13.4063 21.3148 15.3462 19.9563 15.7369 17.2992C15.7907 16.9196 15.8243 16.5684 15.8431 16.2466L15.8535 16.0364L15.8598 15.835C15.8613 15.7693 15.8622 15.7051 15.8625 15.6424L15.8618 15.4587L15.8581 15.284L15.8518 15.1182L15.8432 14.9615L15.8327 14.814L15.8206 14.6757L15.8002 14.4856L15.7783 14.3165L15.7486 14.1243L15.7149 13.9379C15.3537 12.1709 13.8099 10.9138 12.0731 9.87981L11.8176 9.73006C11.7749 9.70535 11.732 9.68077 11.6891 9.65631L11.4308 9.51097L11.1715 9.36831L10.9118 9.22814L10.6525 9.09025L9.50834 8.49272L9.14245 8.29979L8.90484 8.17233L8.67308 8.04555L8.44788 7.91927C8.41092 7.89825 8.37427 7.87724 8.33794 7.85625L8.12384 7.73032C7.17849 7.16379 6.48431 6.59697 6.32389 5.94798Z" fill="#1428A0"/>
</svg>
