<svg width="147" height="20" viewBox="0 0 147 20" fill="none" xmlns="http://www.w3.org/2000/svg">
<path d="M64.0134 12.8613H73.6608L68.5596 4.64545L59.1972 19.5H54.9362L66.324 1.65652C66.8191 0.935564 67.6443 0.5 68.5596 0.5C69.4448 0.5 70.27 0.920551 70.7501 1.62648L82.183 19.5H77.9219L75.9114 16.1806H66.1439L64.0134 12.8613ZM108.275 16.1806V0.680237H104.659V17.6976C104.659 18.1632 104.839 18.6138 105.184 18.9593C105.529 19.3047 105.994 19.5 106.504 19.5H122.993L125.124 16.1806H108.275ZM48.4545 13.402C51.9655 13.402 54.8162 10.5632 54.8162 7.04861C54.8162 3.53399 51.9655 0.680237 48.4545 0.680237H32.636V19.5H36.2505V3.99961H48.2145C49.895 3.99961 51.2453 5.3664 51.2453 7.04861C51.2453 8.73083 49.895 10.0976 48.2145 10.0976L38.021 10.0826L48.8146 19.5H54.066L46.8042 13.402H48.4545ZM10.3856 19.5C5.19571 19.5 0.984131 15.2945 0.984131 10.0976C0.984131 4.90078 5.19571 0.680237 10.3856 0.680237H21.3127C26.504 0.680237 30.7126 4.90078 30.7126 10.0976C30.7126 15.2945 26.504 19.5 21.3127 19.5H10.3856ZM21.0697 16.1806C24.4321 16.1806 27.1552 13.462 27.1552 10.0976C27.1552 6.7332 24.4321 3.99961 21.0697 3.99961H10.6271C7.26623 3.99961 4.54149 6.7332 4.54149 10.0976C4.54149 13.462 7.26623 16.1806 10.6271 16.1806H21.0697ZM89.7298 19.5C84.5385 19.5 80.3225 15.2945 80.3225 10.0976C80.3225 4.90078 84.5385 0.680237 89.7298 0.680237H102.708L100.593 3.99961H89.9699C86.609 3.99961 83.8784 6.7332 83.8784 10.0976C83.8784 13.462 86.609 16.1806 89.9699 16.1806H103.008L100.878 19.5H89.7298ZM133.946 16.1806C131.17 16.1806 128.815 14.3182 128.094 11.7498H143.548L145.679 8.43043H128.094C128.815 5.87707 131.17 3.99961 133.946 3.99961H144.554L146.699 0.680237H133.706C128.515 0.680237 124.299 4.90078 124.299 10.0976C124.299 15.2945 128.515 19.5 133.706 19.5H144.854L146.984 16.1806H133.946Z" fill="#EA1B22"/>
</svg>
