<svg width="148" height="30" viewBox="0 0 148 30" fill="none" xmlns="http://www.w3.org/2000/svg">
<path d="M146.527 9.94797C147.673 10.834 146.46 12.2356 145.448 11.5268C144.201 10.7696 141.369 10.4152 141.015 12.0906C140.56 14.7326 147.893 13.2183 147.775 17.5035C147.657 21.5955 141.453 21.6922 139.127 19.8556C138.571 19.4207 138.588 18.7118 138.891 18.2768C139.329 17.858 139.818 17.713 140.391 18.164C141.774 19.0662 145.33 19.7428 145.583 17.4553C145.364 15.0709 138.352 16.5047 138.874 11.9295C139.262 8.80417 144.201 8.24027 146.527 9.94797ZM135.469 10.5762V16.4081C135.469 22.4332 125.304 22.4332 125.304 16.4081V10.5762C125.304 9.12643 127.512 9.06193 127.512 10.5762V16.4081C127.512 19.5817 133.26 19.7751 133.26 16.4081V10.5762C133.26 9.14243 135.469 9.02968 135.469 10.5762ZM65.8646 9.11031C68.8146 9.25519 71.8994 11.2045 71.8994 15.0227C71.8994 18.8407 68.8146 20.8223 65.8646 20.8223C62.7461 20.9511 59.5096 18.9696 59.5096 15.0227C59.5096 11.0595 62.7461 9.11031 65.8646 9.11031ZM80.7159 9.51294C84.9976 9.51294 85.874 14.9904 82.3005 16.3597L84.5424 18.9696C85.4189 20.2101 83.6658 21.4021 82.6544 20.1779L80.109 16.6981H77.4625V19.614C77.4625 21.0155 75.2205 21.0639 75.2205 19.6462V10.4957C75.2205 9.93184 75.6757 9.51294 76.232 9.51294H80.7159ZM45.7875 9.36807C46.2764 9.36807 46.563 9.64195 46.8496 9.94796L50.558 14.7326L54.4014 9.77071C54.9577 9.11032 56.3231 9.36807 56.3231 10.4796V19.5496C56.3231 20.2584 55.8511 20.6611 55.3117 20.6611C54.7048 20.6611 54.2328 20.2584 54.2328 19.5496V13.5889L51.4346 16.972C50.8277 17.6808 50.0692 17.6808 49.5129 16.972L47.0012 13.5889V19.5496C47.0012 20.2584 46.3944 20.6611 45.7875 20.6611C45.2481 20.6611 44.7761 20.2584 44.7761 19.5496V10.4796C44.7761 9.64196 45.5178 9.36807 45.7875 9.36807ZM92.9375 9.36807C95.129 9.36807 97.1011 10.7696 97.1011 13.46C97.1011 16.0053 95.129 17.423 92.9375 17.423H90.1224V19.5496C90.1224 20.2584 89.6504 20.6611 89.0435 20.6611C88.4873 20.6611 87.8973 20.2583 87.8973 19.5496V10.4796C87.8973 9.94797 88.3356 9.36807 89.0435 9.36807H92.9375ZM109.036 9.51294C109.626 9.51294 110.082 9.93183 110.082 10.5119V19.6623C110.082 20.2261 109.626 20.6611 109.036 20.6611C108.43 20.6611 107.89 20.2261 107.89 19.6623V16.1342H102.395V19.6623C102.395 20.2261 101.956 20.6611 101.366 20.6611C100.608 20.6611 100.17 20.2261 100.17 19.6623V10.5119C100.17 9.93184 100.608 9.51294 101.366 9.51294C101.956 9.51294 102.395 9.93183 102.395 10.5119V14.0239H107.89V10.5119C107.89 9.93184 108.43 9.51294 109.036 9.51294ZM120.769 9.51294C122.32 9.51294 122.286 11.6073 120.769 11.6073H115.914V14.0239H120.162C121.663 14.0239 121.663 16.1342 120.162 16.1342H115.914V18.5507H121.056C122.59 18.5507 122.708 20.6611 121.056 20.6611H114.718C114.128 20.6611 113.672 20.2261 113.672 19.6623V10.5119C113.672 9.93184 114.128 9.51294 114.718 9.51294H120.769ZM65.6792 11.2045C63.7912 11.2045 61.7347 12.4773 61.7347 15.0227C61.7347 17.5519 63.7912 18.8407 65.6792 18.8407C67.6178 18.8407 69.6911 17.5519 69.6911 15.0227C69.6911 12.4773 67.6178 11.2045 65.6792 11.2045ZM92.9375 11.3979H90.1224V15.4093H92.9375C94.0668 15.4093 94.9604 14.4588 94.9604 13.46C94.9604 12.3323 94.0669 11.3979 92.9375 11.3979ZM80.7159 11.4623H77.4625V14.8454H80.7159C82.9072 14.8454 83.0421 11.4623 80.7159 11.4623Z" fill="#3DB5E6"/>
<path d="M29.9717 18.8413C28.3524 25.3613 22.4276 30 15.4496 30C8.43991 30 2.56614 25.0867 1.01318 18.5398C2.88053 18.5398 4.62623 18.5483 5.43668 18.5483C5.81899 18.5483 5.89324 18.555 5.91536 18.5534C6.52516 18.5233 7.2898 18.3216 7.7985 17.0819L9.73694 12L14.0419 22.3879C14.429 23.216 15.0751 23.1573 15.4606 23.1573H15.497C16.249 23.1573 16.576 22.8932 16.8619 22.347L21.7246 12.0779L23.3834 16.7059L23.4845 16.93C23.8352 17.7011 24.0875 18.4627 24.9555 18.5622C25.1344 18.5827 27.2122 18.5464 30.0132 18.5464C30.0132 18.5464 30.0132 18.5644 29.9717 18.8413Z" fill="#3DB5E6"/>
<path d="M30.9841 14.9961C30.9841 15.0746 30.9841 15.2721 30.9825 15.2721H30.9794H26.4843L23.8618 7.87987C23.6283 7.33011 23.2772 6.50594 22.2543 6.50594C21.6285 6.50594 21.063 7.02749 20.7422 7.8882L15.9881 19L11.4119 7.9556C10.964 6.97469 10.6543 6.51336 9.75842 6.51336C9.15006 6.51336 8.70372 6.73949 8.21768 7.90152L5.50152 15.3819L0.988891 15.3771C0.985711 15.2633 0.984131 15.1496 0.984131 15.0358C0.984131 6.72038 7.66492 0 15.9055 0C24.1461 0 30.9841 6.6807 30.9841 14.9961Z" fill="#D8292F"/>
</svg>
