<svg width="146" height="24" viewBox="0 0 146 24" fill="none" xmlns="http://www.w3.org/2000/svg">
<path d="M21.0317 23.875V17.875H14.4902C12.7113 17.875 11.0635 18.8078 10.1524 20.3306L8.03168 23.875H21.0317Z" fill="#63D2F9"/>
<path d="M0.0316772 0.125V6.125H17.4106L21.0317 0.125H0.0316772Z" fill="#4E5EE4"/>
<path d="M8.3016 9.62608L0 23H7.07277L17 7H13.0944C11.1299 7 9.30992 7.99721 8.3016 9.62608Z" fill="#63B0F9"/>
<path d="M35.0224 17.4571C31.5439 17.4571 28.9842 14.9265 28.9842 11.5306C28.9842 8.16735 31.5603 5.60408 35.0388 5.60408C38.5173 5.60408 41.0934 8.2 41.0934 11.5306C41.0934 14.8939 38.5009 17.4571 35.0224 17.4571ZM35.0388 15.3837C37.2375 15.3837 38.8127 13.751 38.8127 11.5306C38.8127 9.34286 37.2375 7.67755 35.0388 7.67755C32.8237 7.67755 31.2485 9.34286 31.2485 11.5306C31.2485 13.751 32.8237 15.3837 35.0388 15.3837ZM43.4228 21V8.65714H45.523V9.75102H45.6379C45.8676 9.39184 46.6552 8.4449 48.2304 8.4449C50.6424 8.4449 52.2996 10.2408 52.2996 12.9184C52.2996 15.5959 50.6588 17.4571 48.296 17.4571C46.77 17.4571 45.9496 16.6082 45.6707 16.1347H45.5558V21H43.4228ZM47.8202 15.5306C49.1985 15.5306 50.1337 14.4694 50.1337 12.951C50.1337 11.3837 49.1985 10.3714 47.8038 10.3714C46.3927 10.3714 45.5066 11.498 45.5066 12.951C45.5066 14.551 46.4911 15.5306 47.8202 15.5306ZM58.4028 17.4571C55.8596 17.4571 54.0547 15.5633 54.0547 13C54.0547 10.2898 55.876 8.4449 58.4028 8.4449C61.1758 8.4449 62.6854 10.4857 62.6854 12.902V13.5714H56.1221C56.1877 14.8776 57.0902 15.7592 58.4685 15.7592C59.5186 15.7592 60.3226 15.2694 60.6179 14.5673H62.6033C62.1767 16.3143 60.6343 17.4571 58.4028 17.4571ZM56.1549 12.0694H60.6508C60.5523 10.9102 59.6498 10.1429 58.4028 10.1429C57.205 10.1429 56.2862 10.9918 56.1549 12.0694ZM64.9819 17.2449V8.65714H67.0165V9.70204H67.1314C67.4759 9.06531 68.3292 8.4449 69.5598 8.4449C71.4959 8.4449 72.6773 9.8 72.6773 11.6286V17.2449H70.5443V12.1837C70.5443 11.1388 69.8715 10.4367 68.887 10.4367C67.8533 10.4367 67.115 11.2531 67.115 12.3306V17.2449H64.9819ZM74.7934 17.2449V15.302L80.766 7.80816V7.69388H75.0067V5.81633H83.4897V7.74286L77.5171 15.2367V15.3673H83.5225V17.2449H74.7934ZM89.2976 17.4571C86.7543 17.4571 84.9494 15.5633 84.9494 13C84.9494 10.2898 86.7707 8.4449 89.2976 8.4449C92.0706 8.4449 93.5801 10.4857 93.5801 12.902V13.5714H87.0169C87.0825 14.8776 87.9849 15.7592 89.3632 15.7592C90.4134 15.7592 91.2174 15.2694 91.5127 14.5673H93.4981C93.0715 16.3143 91.5291 17.4571 89.2976 17.4571ZM87.0497 12.0694H91.5455C91.4471 10.9102 90.5446 10.1429 89.2976 10.1429C88.0998 10.1429 87.1809 10.9918 87.0497 12.0694ZM95.8767 21V8.65714H97.9769V9.75102H98.0918C98.3215 9.39184 99.1091 8.4449 100.684 8.4449C103.096 8.4449 104.753 10.2408 104.753 12.9184C104.753 15.5959 103.113 17.4571 100.75 17.4571C99.2239 17.4571 98.4035 16.6082 98.1246 16.1347H98.0097V21H95.8767ZM100.274 15.5306C101.652 15.5306 102.588 14.4694 102.588 12.951C102.588 11.3837 101.652 10.3714 100.258 10.3714C98.8465 10.3714 97.9605 11.498 97.9605 12.951C97.9605 14.551 98.945 15.5306 100.274 15.5306ZM107.05 21V8.65714H109.15V9.75102H109.265C109.495 9.39184 110.282 8.4449 111.858 8.4449C114.27 8.4449 115.927 10.2408 115.927 12.9184C115.927 15.5959 114.286 17.4571 111.923 17.4571C110.397 17.4571 109.577 16.6082 109.298 16.1347H109.183V21H107.05ZM111.447 15.5306C112.826 15.5306 113.761 14.4694 113.761 12.951C113.761 11.3837 112.826 10.3714 111.431 10.3714C110.02 10.3714 109.134 11.498 109.134 12.951C109.134 14.551 110.118 15.5306 111.447 15.5306ZM122.03 17.4571C119.487 17.4571 117.682 15.5633 117.682 13C117.682 10.2898 119.503 8.4449 122.03 8.4449C124.803 8.4449 126.313 10.4857 126.313 12.902V13.5714H119.749C119.815 14.8776 120.717 15.7592 122.096 15.7592C123.146 15.7592 123.95 15.2694 124.245 14.5673H126.231C125.804 16.3143 124.262 17.4571 122.03 17.4571ZM119.782 12.0694H124.278C124.18 10.9102 123.277 10.1429 122.03 10.1429C120.832 10.1429 119.913 10.9918 119.782 12.0694ZM130.709 17.2449C129.2 17.2449 128.347 16.3469 128.347 14.8286V5H130.48V14.6327C130.48 15.1224 130.726 15.3837 131.169 15.3837H131.513V17.2449H130.709ZM134.63 7.51429C133.859 7.51429 133.318 7.04082 133.318 6.27347C133.318 5.53878 133.859 5.04898 134.63 5.04898C135.402 5.04898 135.943 5.53878 135.943 6.27347C135.943 7.04082 135.402 7.51429 134.63 7.51429ZM133.564 17.2449V8.65714H135.697V17.2449H133.564ZM138.289 17.2449V8.65714H140.323V9.70204H140.438C140.783 9.06531 141.636 8.4449 142.867 8.4449C144.803 8.4449 145.984 9.8 145.984 11.6286V17.2449H143.851V12.1837C143.851 11.1388 143.178 10.4367 142.194 10.4367C141.16 10.4367 140.422 11.2531 140.422 12.3306V17.2449H138.289Z" fill="#282846"/>
</svg>
