<svg width="32" height="30" viewBox="0 0 32 30" fill="none" xmlns="http://www.w3.org/2000/svg">
<path d="M27.0956 16.0691L27.1149 16.0706L29.1329 16.2824C29.2746 16.2977 29.4047 16.3671 29.4966 16.4756L29.5116 16.4941L29.4925 16.5036C29.5868 16.6231 29.6284 16.7761 29.6075 16.9271C29.1666 20.4457 27.5052 23.6959 24.9149 26.1074C22.2271 28.6097 18.6968 30 15.031 30C13.2505 30.0029 11.4852 29.6738 9.82487 29.0298L9.73441 28.9944C9.59851 28.944 9.48933 28.8402 9.43152 28.7076L9.42282 28.6865C9.36622 28.5544 9.36307 28.4058 9.41339 28.272L10.2099 26.3213C10.3179 26.0455 10.6238 25.9066 10.9 26.0043L10.9184 26.0112C14.9899 27.5893 19.6012 26.7005 22.801 23.721C24.8377 21.8424 26.151 19.3046 26.511 16.5518C26.5491 16.2675 26.7948 16.0607 27.0763 16.0683L27.0956 16.0691ZM74.7557 7.79005C76.4764 7.79005 77.8221 8.31704 78.6815 9.32911L78.7103 9.36341V8.50695C78.7218 8.2679 78.9062 8.07469 79.1416 8.05136L79.1608 8.04984H81.4568C81.693 8.06623 81.8809 8.25288 81.9013 8.4878L81.9026 8.50695V21.3008C81.9769 23.1048 81.4245 24.8787 80.34 26.3192C79.1032 27.83 77.2243 28.595 74.7557 28.595C71.3238 28.595 68.6155 26.4154 68.1697 23.3023C68.1476 23.0776 68.284 22.8686 68.4959 22.7981L68.5148 22.7923L70.7581 22.263C70.7698 22.2604 70.7816 22.2582 70.7934 22.2564C71.0396 22.2202 71.2684 22.3912 71.3045 22.6384C71.5094 24.3846 73.0046 25.6874 74.7557 25.6455C77.4084 25.6455 78.6564 24.2921 78.6811 21.4639L78.6815 21.3777V20.2567C77.6871 21.3761 76.2491 21.9948 74.7557 21.9455C70.9402 21.9455 68.1746 18.972 68.1746 14.8822C68.1396 13.0421 68.7851 11.2542 69.9864 9.86376C71.2065 8.51818 72.9433 7.76306 74.7557 7.79005ZM5.65584 23.3504L5.68429 23.3502L5.71284 23.3504C6.6287 23.3609 7.36611 24.1043 7.37606 25.0203L7.37614 25.049C7.37614 25.0585 7.37603 25.068 7.37586 25.0775C7.35991 26.0154 6.58965 26.7629 5.65529 26.7469C4.72093 26.7309 3.9764 25.9577 3.99219 25.0198C4.00781 24.1011 4.74727 23.3651 5.65584 23.3504ZM114.5 7.61203L114.617 7.6129C118.719 7.66976 121.26 10.5356 121.26 15.1227C121.26 15.3654 121.247 15.608 121.222 15.8493C121.201 16.0712 121.02 16.2424 120.8 16.2529L120.781 16.2534H111.031C111.091 18.3089 112.784 19.9352 114.833 19.9054C116.421 20.0055 117.867 18.992 118.322 17.4612C118.405 17.2414 118.641 17.1232 118.865 17.1862L118.883 17.1917L120.829 17.8798C120.936 17.9145 121.024 17.991 121.074 18.0916L121.083 18.1108C121.136 18.2167 121.145 18.3398 121.108 18.4523C120.203 21.1388 117.656 22.9163 114.833 22.8308C112.982 22.8493 111.2 22.1233 109.886 20.8148C108.452 19.3 107.686 17.2689 107.763 15.1805C107.763 10.4886 111.122 7.66882 114.402 7.61289L114.5 7.61203ZM59.3308 7.61204H59.3356C63.5106 7.61204 66.1038 10.4893 66.1038 15.1227C66.1035 15.3654 66.0907 15.608 66.0654 15.8493C66.0461 16.0724 65.8641 16.2448 65.643 16.2531L65.6244 16.2534H55.8749C55.935 18.3146 57.6365 19.9432 59.6903 19.9054C61.2791 20.0074 62.727 18.9932 63.1799 17.4612C63.2611 17.2397 63.4989 17.1206 63.7226 17.186L63.7407 17.1917L65.6868 17.8798C65.8005 17.9167 65.893 18.0007 65.9408 18.1108C65.9864 18.22 65.9864 18.3431 65.9408 18.4523C65.0376 21.1371 62.4929 22.9142 59.6712 22.8308C57.8168 22.8519 56.0315 22.1257 54.7148 20.8148C53.2825 19.2988 52.5173 17.2686 52.5914 15.1805C52.5914 10.4412 56.0187 7.61204 59.3308 7.61204ZM44.5674 7.60717C46.4416 7.60717 47.9563 8.06428 49.0779 8.96398C49.8363 9.57071 50.3984 10.3895 50.6933 11.3169L50.6942 11.3206C50.7327 11.4805 50.6391 11.6415 50.4837 11.6879L50.468 11.6921L48.1432 12.462C48.0401 12.503 47.9252 12.503 47.8221 12.462C47.7341 12.4207 47.6678 12.3437 47.6399 12.2503L47.6275 12.2044C47.4158 11.4446 46.7235 10.2246 44.5674 10.2246C43.0336 10.2246 42.1133 11.11 42.1133 11.9664L42.1136 12.0004C42.1251 12.5573 42.4268 13.2563 43.7497 13.5221L43.7909 13.5301L46.3506 14.0113C49.1788 14.5829 50.809 16.1259 50.8413 18.2763L50.8418 18.3417L50.8323 18.3033L50.8317 18.3685C50.7905 20.5241 48.7134 22.7923 44.8886 22.7923C40.4068 22.7923 38.6477 20.247 38.3217 18.7459C38.3004 18.5888 38.3959 18.4405 38.5452 18.3943L38.5614 18.3898L40.9581 17.6392C41.0009 17.6322 41.0446 17.6322 41.0875 17.6392C41.1484 17.6381 41.2087 17.6511 41.2636 17.677L41.284 17.6873C41.372 17.7296 41.437 17.809 41.4613 17.9038C41.7634 19.3473 43.0623 20.2086 44.9317 20.2086C46.6717 20.2086 47.4626 19.2943 47.4626 18.4668C47.4626 17.6483 46.7733 17.0415 45.5851 16.791L45.5453 16.7827L42.8562 16.2583C40.3493 15.782 38.7867 14.2182 38.7867 12.1829C38.7867 9.70498 41.4374 7.60717 44.5674 7.60717ZM141.239 3.59922H143.334C143.581 3.61411 143.775 3.81532 143.784 4.06178L143.785 4.08034V8.03061H146.305C146.551 8.04791 146.742 8.24824 146.751 8.49284L146.752 8.51174V10.6096L146.751 10.6278C146.745 10.863 146.558 11.0541 146.324 11.0661L146.305 11.0667H143.785V18.0867C143.785 19.251 144.244 19.7322 145.428 19.7322C145.668 19.728 145.907 19.7098 146.145 19.6775L146.234 19.6648C146.364 19.6426 146.498 19.6797 146.598 19.7659C146.688 19.8502 146.743 19.966 146.751 20.0892L146.752 20.1123V22.0898C146.753 22.2914 146.623 22.4699 146.43 22.5277C145.878 22.6828 145.308 22.7607 144.735 22.7593L144.657 22.7586C142.156 22.7586 140.595 21.16 140.564 18.5743L140.563 18.4957V11.0955H138.382C138.145 11.0815 137.954 10.8942 137.933 10.6577L137.932 10.6384V8.53097C137.931 8.28234 138.12 8.07543 138.364 8.05131L138.382 8.04984L138.969 8.04977L139.031 8.04865C139.716 8.02892 140.767 7.75045 140.788 6.21682L140.789 6.1685V4.08034C140.788 3.83172 140.976 3.6248 141.221 3.60068L141.239 3.59922ZM100.527 7.6099L100.582 7.61204H100.577C103.045 7.61204 105.536 9.33794 105.586 13.1073L105.586 13.2222V22.1332C105.575 22.3722 105.39 22.5653 105.155 22.5887L105.136 22.5903H102.84C102.602 22.5761 102.412 22.3889 102.39 22.1524L102.389 22.1332V13.5109L102.389 13.4445C102.375 12.3459 102.003 10.5807 99.7484 10.5807C98.0823 10.5807 96.8956 11.8822 96.8721 13.7757L96.8717 13.8333V22.1332C96.8605 22.3722 96.6762 22.5653 96.4404 22.5887L96.4212 22.5903H94.097C93.8584 22.5761 93.6682 22.3889 93.6477 22.1524L93.6465 22.1332V13.5109L93.646 13.4445C93.632 12.3459 93.2601 10.5807 91.0049 10.5807C89.2729 10.5807 88.1001 11.8728 88.0768 13.8034L88.0765 13.8621V22.1332C88.0645 22.3722 87.8802 22.5653 87.6451 22.5887L87.6259 22.5903H85.3297C85.0936 22.5739 84.9057 22.3872 84.8854 22.1523L84.8841 22.1332V8.47807C84.8953 8.2407 85.0772 8.04817 85.3107 8.02266L85.3297 8.02096H87.5396C87.7774 8.03502 87.9683 8.22231 87.9889 8.45879L87.9901 8.47807V9.30085C88.9841 8.20689 90.3974 7.59224 91.8723 7.61204C93.5807 7.56178 95.1748 8.46841 96.0093 9.96478C97.0031 8.44057 98.7164 7.54887 100.527 7.6099ZM134.907 9.31043C135.787 10.4737 136.24 11.9044 136.194 13.3626L136.191 13.4243V22.1332C136.18 22.3705 135.998 22.5631 135.765 22.5886L135.746 22.5903H133.422C133.183 22.5761 132.993 22.3889 132.971 22.1524L132.97 22.1332V13.891C132.97 11.7355 131.959 10.6384 130.042 10.6384C129.195 10.611 128.385 10.9897 127.861 11.6585C127.353 12.3926 127.091 13.2687 127.112 14.1609L127.113 14.2134V22.1332C127.101 22.3722 126.917 22.5653 126.682 22.5887L126.663 22.5903H124.343C124.105 22.5761 123.914 22.3889 123.893 22.1524L123.892 22.1332V8.46841C123.903 8.22936 124.088 8.03623 124.323 8.01283L124.343 8.0113H126.61C126.846 8.02769 127.034 8.21441 127.054 8.44927L127.056 8.46841V9.43075C128.028 8.24799 129.488 7.57779 131.015 7.61204C132.503 7.54817 133.939 8.17446 134.907 9.31043ZM1.30774 16.6528H17.8112C18.1144 16.6554 18.3594 16.8992 18.3671 17.2013L18.3672 17.2206V19.2944C18.3698 19.5988 18.1311 19.8489 17.8304 19.8616L17.8111 19.8621H1.30774C1.00441 19.8595 0.759494 19.6157 0.751709 19.3137V19.2943V17.2206V17.2012C0.759332 16.9058 0.993955 16.6661 1.28805 16.6534L1.30774 16.6528ZM75.1536 10.6673C72.8912 10.6673 71.4532 12.284 71.4532 14.8822C71.4532 17.4804 72.8719 19.0922 75.1536 19.0922C77.3297 19.0922 78.7965 17.3986 78.7965 14.8822C78.7965 12.3609 77.3297 10.6673 75.1536 10.6673ZM55.9769 13.4785L55.9707 13.5301H62.7916C62.6256 11.701 61.3413 10.5604 59.4181 10.5378L59.3596 10.5374C57.6649 10.5098 56.2217 11.754 55.9837 13.4277L55.9769 13.4785ZM111.153 13.4785L111.146 13.5301H117.968C117.802 11.701 116.517 10.5604 114.594 10.5378L114.535 10.5374C112.841 10.5098 111.397 11.754 111.159 13.4277L111.153 13.4785ZM19.8771 0.827744C20.0199 0.879488 20.1358 0.987102 20.1982 1.12608C20.2555 1.26637 20.2555 1.42366 20.1982 1.56388L19.4792 3.48855C19.3796 3.77392 19.0687 3.92453 18.7842 3.82534C15.0175 2.50591 10.8379 3.25558 7.75955 5.80282C5.84109 7.41472 4.47889 9.59382 3.86739 12.0289C3.80408 12.2748 3.5835 12.4468 3.33053 12.4476H3.20589L1.23104 11.9712C1.08379 11.9365 0.957346 11.8425 0.881134 11.7114H0.871515C0.791603 11.5803 0.769077 11.4219 0.809279 11.2736C1.59352 8.15638 3.34829 5.37179 5.81824 3.3249C9.74576 0.0792337 15.0785 -0.868 19.8771 0.827744ZM12.5673 9.14207H29.0706C29.3664 9.1445 29.6082 9.37674 29.6258 9.67085L29.6267 9.69054V11.7643C29.6292 12.0688 29.3907 12.3189 29.0899 12.3316L29.0706 12.3321H12.5673C12.2659 12.3269 12.0238 12.0841 12.0162 11.784L12.016 11.7643V9.70977C12.0134 9.40729 12.249 9.15816 12.5477 9.14275L12.5673 9.14207ZM24.0238 2.81486L24.0523 2.81464L24.0808 2.81489C24.9967 2.82542 25.7341 3.56879 25.744 4.48468L25.7441 4.51336C25.7441 4.52293 25.744 4.5325 25.7438 4.54199C25.728 5.4799 24.9576 6.22726 24.0233 6.21133C23.0889 6.1954 22.3444 5.42213 22.3602 4.48431C22.3758 3.56546 23.1153 2.82954 24.0238 2.81486Z" fill="#4FB58B"/>
</svg>
