<svg width="167" height="108" viewBox="0 0 167 108" fill="none" xmlns="http://www.w3.org/2000/svg">
<g opacity="0.3">
<circle cx="2.45455" cy="2.45455" r="2.45455" fill="#34B53A"/>
<circle cx="17.1811" cy="2.45455" r="2.45455" fill="#34B53A"/>
<circle cx="31.9077" cy="2.45455" r="2.45455" fill="#34B53A"/>
<circle cx="46.6381" cy="2.45455" r="2.45455" fill="#34B53A"/>
<circle cx="61.3647" cy="2.45455" r="2.45455" fill="#34B53A"/>
<circle cx="76.0913" cy="2.45455" r="2.45455" fill="#34B53A"/>
<circle cx="90.8178" cy="2.45455" r="2.45455" fill="#34B53A"/>
<circle cx="105.544" cy="2.45455" r="2.45455" fill="#34B53A"/>
<circle cx="120.271" cy="2.45455" r="2.45455" fill="#34B53A"/>
<circle cx="135.001" cy="2.45455" r="2.45455" fill="#34B53A"/>
<circle cx="149.728" cy="2.45455" r="2.45455" fill="#34B53A"/>
<circle cx="164.455" cy="2.45455" r="2.45455" fill="#34B53A"/>
<circle cx="2.45455" cy="17.1811" r="2.45455" fill="#34B53A"/>
<circle cx="17.1811" cy="17.1811" r="2.45455" fill="#34B53A"/>
<circle cx="31.9077" cy="17.1811" r="2.45455" fill="#34B53A"/>
<circle cx="46.6381" cy="17.1811" r="2.45455" fill="#34B53A"/>
<circle cx="61.3647" cy="17.1811" r="2.45455" fill="#34B53A"/>
<circle cx="76.0913" cy="17.1811" r="2.45455" fill="#34B53A"/>
<circle cx="90.8178" cy="17.1811" r="2.45455" fill="#34B53A"/>
<circle cx="105.544" cy="17.1811" r="2.45455" fill="#34B53A"/>
<circle cx="120.271" cy="17.1811" r="2.45455" fill="#34B53A"/>
<circle cx="135.001" cy="17.1811" r="2.45455" fill="#34B53A"/>
<circle cx="149.728" cy="17.1811" r="2.45455" fill="#34B53A"/>
<circle cx="164.455" cy="17.1811" r="2.45455" fill="#34B53A"/>
<circle cx="2.45455" cy="31.9096" r="2.45455" fill="#34B53A"/>
<circle cx="17.1811" cy="31.9096" r="2.45455" fill="#34B53A"/>
<circle cx="31.9077" cy="31.9096" r="2.45455" fill="#34B53A"/>
<circle cx="46.6381" cy="31.9096" r="2.45455" fill="#34B53A"/>
<circle cx="61.3647" cy="31.9096" r="2.45455" fill="#34B53A"/>
<circle cx="76.0913" cy="31.9096" r="2.45455" fill="#34B53A"/>
<circle cx="90.8178" cy="31.9096" r="2.45455" fill="#34B53A"/>
<circle cx="105.544" cy="31.9096" r="2.45455" fill="#34B53A"/>
<circle cx="120.271" cy="31.9096" r="2.45455" fill="#34B53A"/>
<circle cx="135.001" cy="31.9096" r="2.45455" fill="#34B53A"/>
<circle cx="149.728" cy="31.9096" r="2.45455" fill="#34B53A"/>
<circle cx="164.455" cy="31.9096" r="2.45455" fill="#34B53A"/>
<circle cx="2.45455" cy="46.6364" r="2.45455" fill="#34B53A"/>
<circle cx="17.1811" cy="46.6364" r="2.45455" fill="#34B53A"/>
<circle cx="31.9077" cy="46.6364" r="2.45455" fill="#34B53A"/>
<circle cx="46.6381" cy="46.6364" r="2.45455" fill="#34B53A"/>
<circle cx="61.3647" cy="46.6364" r="2.45455" fill="#34B53A"/>
<circle cx="76.0913" cy="46.6364" r="2.45455" fill="#34B53A"/>
<circle cx="90.8178" cy="46.6364" r="2.45455" fill="#34B53A"/>
<circle cx="105.544" cy="46.6364" r="2.45455" fill="#34B53A"/>
<circle cx="120.271" cy="46.6364" r="2.45455" fill="#34B53A"/>
<circle cx="135.001" cy="46.6364" r="2.45455" fill="#34B53A"/>
<circle cx="149.728" cy="46.6364" r="2.45455" fill="#34B53A"/>
<circle cx="164.455" cy="46.6364" r="2.45455" fill="#34B53A"/>
<circle cx="2.45455" cy="61.3627" r="2.45455" fill="#34B53A"/>
<circle cx="17.1811" cy="61.3627" r="2.45455" fill="#34B53A"/>
<circle cx="31.9077" cy="61.3627" r="2.45455" fill="#34B53A"/>
<circle cx="46.6381" cy="61.3627" r="2.45455" fill="#34B53A"/>
<circle cx="61.3647" cy="61.3627" r="2.45455" fill="#34B53A"/>
<circle cx="76.0913" cy="61.3627" r="2.45455" fill="#34B53A"/>
<circle cx="90.8178" cy="61.3627" r="2.45455" fill="#34B53A"/>
<circle cx="105.544" cy="61.3627" r="2.45455" fill="#34B53A"/>
<circle cx="120.271" cy="61.3627" r="2.45455" fill="#34B53A"/>
<circle cx="135.001" cy="61.3627" r="2.45455" fill="#34B53A"/>
<circle cx="149.728" cy="61.3627" r="2.45455" fill="#34B53A"/>
<circle cx="164.455" cy="61.3627" r="2.45455" fill="#34B53A"/>
<circle cx="2.45455" cy="76.0913" r="2.45455" fill="#34B53A"/>
<circle cx="17.1811" cy="76.0913" r="2.45455" fill="#34B53A"/>
<circle cx="31.9077" cy="76.0913" r="2.45455" fill="#34B53A"/>
<circle cx="46.6381" cy="76.0913" r="2.45455" fill="#34B53A"/>
<circle cx="61.3647" cy="76.0913" r="2.45455" fill="#34B53A"/>
<circle cx="76.0913" cy="76.0913" r="2.45455" fill="#34B53A"/>
<circle cx="90.8178" cy="76.0913" r="2.45455" fill="#34B53A"/>
<circle cx="105.544" cy="76.0913" r="2.45455" fill="#34B53A"/>
<circle cx="120.271" cy="76.0913" r="2.45455" fill="#34B53A"/>
<circle cx="135.001" cy="76.0913" r="2.45455" fill="#34B53A"/>
<circle cx="149.728" cy="76.0913" r="2.45455" fill="#34B53A"/>
<circle cx="164.455" cy="76.0913" r="2.45455" fill="#34B53A"/>
<circle cx="2.45455" cy="90.8178" r="2.45455" fill="#34B53A"/>
<circle cx="17.1811" cy="90.8178" r="2.45455" fill="#34B53A"/>
<circle cx="31.9077" cy="90.8178" r="2.45455" fill="#34B53A"/>
<circle cx="46.6381" cy="90.8178" r="2.45455" fill="#34B53A"/>
<circle cx="61.3647" cy="90.8178" r="2.45455" fill="#34B53A"/>
<circle cx="76.0913" cy="90.8178" r="2.45455" fill="#34B53A"/>
<circle cx="90.8178" cy="90.8178" r="2.45455" fill="#34B53A"/>
<circle cx="105.544" cy="90.8178" r="2.45455" fill="#34B53A"/>
<circle cx="120.271" cy="90.8178" r="2.45455" fill="#34B53A"/>
<circle cx="135.001" cy="90.8178" r="2.45455" fill="#34B53A"/>
<circle cx="149.728" cy="90.8178" r="2.45455" fill="#34B53A"/>
<circle cx="164.455" cy="90.8178" r="2.45455" fill="#34B53A"/>
<circle cx="2.45455" cy="105.546" r="2.45455" fill="#34B53A"/>
<circle cx="17.1811" cy="105.546" r="2.45455" fill="#34B53A"/>
<circle cx="31.9077" cy="105.546" r="2.45455" fill="#34B53A"/>
<circle cx="46.6381" cy="105.546" r="2.45455" fill="#34B53A"/>
<circle cx="61.3647" cy="105.546" r="2.45455" fill="#34B53A"/>
<circle cx="76.0913" cy="105.546" r="2.45455" fill="#34B53A"/>
<circle cx="90.8178" cy="105.546" r="2.45455" fill="#34B53A"/>
<circle cx="105.544" cy="105.546" r="2.45455" fill="#34B53A"/>
<circle cx="120.271" cy="105.546" r="2.45455" fill="#34B53A"/>
<circle cx="135.001" cy="105.546" r="2.45455" fill="#34B53A"/>
<circle cx="149.728" cy="105.546" r="2.45455" fill="#34B53A"/>
<circle cx="164.455" cy="105.546" r="2.45455" fill="#34B53A"/>
</g>
</svg>
