<svg width="40" height="40" viewBox="0 0 40 40" fill="none" xmlns="http://www.w3.org/2000/svg">
<g clip-path="url(#clip0_1_2391)">
<path d="M6.64361 13.1C6.80228 13.1916 6.97642 13.2374 7.15064 13.2374C7.32533 13.2374 7.50017 13.1914 7.65962 13.0993L10.1717 11.649C10.4902 11.4651 10.6803 11.1363 10.6803 10.7694C10.6803 10.4025 10.4902 10.0737 10.1717 9.88983L7.65962 8.43952C7.34119 8.25562 6.96134 8.25554 6.64361 8.4389C6.32595 8.62233 6.13626 8.9514 6.13626 9.31913V12.2198C6.13619 12.5875 6.32587 12.9166 6.64361 13.1ZM7.07369 9.31905C7.07369 9.30765 7.07369 9.27304 7.11236 9.25069C7.12502 9.24343 7.13783 9.23976 7.15072 9.23976C7.164 9.23976 7.17744 9.24366 7.19087 9.2514L9.70298 10.7017C9.71283 10.7074 9.74291 10.7247 9.74291 10.7694C9.74291 10.8141 9.7129 10.8313 9.70298 10.837L7.19087 12.2873C7.18103 12.2931 7.15095 12.3103 7.11236 12.288C7.07369 12.2657 7.07369 12.2311 7.07369 12.2197V9.31905ZM2.81259 16.0009H12.9874C14.1074 16.0009 15.0186 15.0897 15.0186 13.9697V7.56913C15.0186 6.44913 14.1074 5.53788 12.9874 5.53788H2.81259C1.69259 5.53788 0.781343 6.44913 0.781343 7.56913V13.9697C0.781421 15.0897 1.69259 16.0009 2.81259 16.0009ZM1.71892 7.56913C1.71892 6.96608 2.20955 6.47538 2.81267 6.47538H12.9874C13.5906 6.47538 14.0812 6.96601 14.0812 7.56913V13.9697C14.0812 14.5727 13.5906 15.0634 12.9874 15.0634H2.81259C2.20955 15.0634 1.71884 14.5728 1.71884 13.9697V7.56913H1.71892ZM25.3212 22.2811C25.2667 22.0776 25.0832 21.9355 24.8726 21.9337L22.7377 21.9148L21.1506 15.9912C21.0356 15.5619 20.7592 15.2024 20.3722 14.9791C19.9853 14.7557 19.5358 14.6959 19.1063 14.8111C18.677 14.9262 18.3175 15.2026 18.0942 15.5894C17.8708 15.9763 17.8111 16.4259 17.9262 16.8552L18.1092 17.5381C17.4086 18.8314 14.9564 22.448 8.68462 24.4658C7.53548 24.8355 6.33666 25.1356 5.1772 25.4259C4.59244 25.5723 3.98775 25.7237 3.394 25.8828C2.47423 26.1293 1.71041 26.7238 1.24337 27.5569C0.774546 28.3931 0.657749 29.3812 0.914468 30.3391C1.36041 32.0034 2.78478 33.0814 4.36712 33.0812C4.6708 33.0812 4.98056 33.0415 5.29001 32.9587C5.36173 32.9394 5.43369 32.9196 5.50556 32.9L8.629 38.3099C8.96572 38.893 9.57845 39.2194 10.2077 39.2193C10.5162 39.2193 10.8287 39.1409 11.1145 38.9759C11.5341 38.7336 11.8346 38.3412 11.9607 37.8707C12.0867 37.4003 12.0227 36.9101 11.7805 36.4905L9.12478 31.8907C9.60916 31.7641 10.0953 31.6448 10.5802 31.5403C17.021 30.1519 20.9527 32.0579 22.206 32.8276L22.3889 33.5105C22.5885 34.2553 23.2646 34.7478 24.0017 34.7477C24.1442 34.7477 24.2891 34.7293 24.4331 34.6908C25.3221 34.4525 25.8516 33.5355 25.6133 32.6466L24.0261 26.723L25.8655 25.6391C26.047 25.5323 26.1348 25.3174 26.0803 25.114L25.3212 22.2811ZM5.04728 32.0529C3.63306 32.432 2.21541 31.5723 1.81994 30.0963C1.62689 29.3759 1.71251 28.6369 2.06103 28.0152C2.40345 27.4045 2.96298 26.9687 3.63658 26.7883C4.22283 26.6312 4.82376 26.4807 5.40486 26.3352C6.42353 26.0802 7.4722 25.8175 8.50173 25.5048L9.90228 30.7317C8.85462 30.9756 7.81541 31.2723 6.80595 31.5608C6.22962 31.7255 5.63377 31.8958 5.04728 32.0529ZM10.9685 36.959C11.0856 37.1617 11.1163 37.3993 11.055 37.6279C10.9938 37.8565 10.8484 38.0468 10.6456 38.1638C10.4429 38.2808 10.2055 38.3117 9.97673 38.2504C9.74814 38.1891 9.55783 38.0437 9.4408 37.841L6.43814 32.6403C6.64814 32.5808 6.85728 32.5212 7.06353 32.4623C7.43486 32.3562 7.81056 32.2491 8.18853 32.1439L10.9685 36.959ZM10.8199 30.5341L9.39525 25.2173C13.3731 23.8526 16.6538 21.5142 18.4467 18.798L21.8683 31.5676C18.9574 30.1118 14.9472 29.7269 10.8199 30.5341ZM24.1905 33.7851C23.8006 33.8896 23.3988 33.6574 23.2944 33.2678L18.8317 16.6126C18.7814 16.4251 18.8078 16.2282 18.906 16.0581C19.0042 15.8881 19.1615 15.7668 19.349 15.7166C19.4111 15.6999 19.4742 15.6917 19.537 15.6917C19.6639 15.6917 19.7896 15.7253 19.9034 15.7909C20.0734 15.8891 20.1947 16.0464 20.2449 16.2338L24.7077 32.8891C24.8121 33.2787 24.5801 33.6807 24.1905 33.7851ZM23.7742 25.7832L22.9895 22.8545L24.5078 22.868L25.0824 25.0123L23.7742 25.7832ZM27.6715 17.1637L26.0133 20.0359C25.9265 20.1862 25.7689 20.2703 25.6069 20.2703C25.5274 20.2703 25.4468 20.2501 25.373 20.2074C25.1488 20.078 25.072 19.7912 25.2014 19.5671L26.8596 16.695C26.9891 16.4708 27.2758 16.3941 27.4999 16.5234C27.7241 16.6529 27.8009 16.9395 27.6715 17.1637ZM30.2056 29.1825L27.3335 27.5242C27.1092 27.3948 27.0324 27.1081 27.1619 26.8839C27.2913 26.6598 27.5781 26.583 27.8022 26.7123L30.6743 28.3706C30.8985 28.5001 30.9753 28.7867 30.8459 29.0109C30.7591 29.1613 30.6015 29.2454 30.4395 29.2454C30.36 29.2454 30.2794 29.2251 30.2056 29.1825ZM27.9817 22.6011L31.1851 21.7427C31.4349 21.6756 31.6921 21.8241 31.7592 22.0742C31.8262 22.3243 31.6777 22.5813 31.4277 22.6483L28.2242 23.5067C28.1836 23.5176 28.1428 23.5227 28.1026 23.5227C27.8956 23.5227 27.7063 23.3846 27.6501 23.1752C27.5831 22.9251 27.7316 22.6681 27.9817 22.6011ZM36.7531 0.781006H25.3379C23.9783 0.781006 22.8721 1.88718 22.8721 3.24679V9.05202C22.8721 10.4116 23.9783 11.5178 25.3379 11.5178H26.5585V14.196C26.5585 14.3773 26.6631 14.5424 26.827 14.6198C26.8909 14.65 26.9592 14.6648 27.0272 14.6648C27.1338 14.6648 27.2395 14.6284 27.325 14.558L31.0217 11.5178H36.7532C38.1128 11.5178 39.219 10.4116 39.219 9.05202V3.24679C39.2188 1.88718 38.1127 0.781006 36.7531 0.781006ZM38.2813 9.05194C38.2813 9.8946 37.5958 10.5802 36.7531 10.5802H30.8536C30.745 10.5802 30.6398 10.618 30.5559 10.6869L27.496 13.2035V11.049C27.496 10.7901 27.286 10.5802 27.0272 10.5802H25.3379C24.4952 10.5802 23.8096 9.89468 23.8096 9.05194V3.24679C23.8096 2.40413 24.4952 1.71851 25.3379 1.71851H36.7531C37.5958 1.71851 38.2814 2.40405 38.2814 3.24679V9.05194H38.2813ZM36.3623 3.9521C36.3623 4.21093 36.1524 4.42085 35.8935 4.42085H26.1975C25.9387 4.42085 25.7288 4.21093 25.7288 3.9521C25.7288 3.69327 25.9387 3.48335 26.1975 3.48335H35.8935C36.1524 3.48335 36.3623 3.69319 36.3623 3.9521ZM36.3623 8.34655C36.3623 8.60538 36.1524 8.8153 35.8935 8.8153H30.8536C30.5948 8.8153 30.3849 8.60538 30.3849 8.34655C30.3849 8.08772 30.5948 7.8778 30.8536 7.8778H35.8935C36.1524 7.8778 36.3623 8.08772 36.3623 8.34655ZM36.3623 6.14936C36.3623 6.40819 36.1524 6.61811 35.8935 6.61811H26.1975C25.9387 6.61811 25.7288 6.40819 25.7288 6.14936C25.7288 5.89054 25.9387 5.68061 26.1975 5.68061H35.8935C36.1524 5.68061 36.3623 5.89046 36.3623 6.14936ZM36.4177 30.1498C35.6013 30.1498 34.834 30.5362 34.3092 31.1773C33.7844 30.5362 33.0172 30.1498 32.2008 30.1498C30.6562 30.1498 29.3995 31.4978 29.3995 33.1548C29.3995 34.5406 31.041 36.3075 32.8696 38.148C33.166 38.4463 33.422 38.704 33.6124 38.91C33.7936 39.1061 34.0476 39.2185 34.3093 39.2185C34.571 39.2184 34.825 39.106 35.006 38.91C35.1964 38.704 35.4524 38.4463 35.7488 38.148C37.5774 36.3075 39.2188 34.5407 39.2188 33.1548C39.2188 31.4978 37.9622 30.1498 36.4177 30.1498ZM35.0838 37.4873C34.781 37.792 34.5195 38.0553 34.3175 38.2737C34.3128 38.2787 34.3098 38.2805 34.3096 38.2809C34.3086 38.2805 34.3055 38.2788 34.3008 38.2737C34.0989 38.0552 33.8374 37.792 33.5345 37.4873C32.417 36.3626 30.337 34.2689 30.337 33.1548C30.337 32.0148 31.1731 31.0873 32.2007 31.0873C32.9106 31.0873 33.5696 31.5462 33.8795 32.2566C33.9541 32.4274 34.1227 32.5379 34.3092 32.5379C34.4956 32.5379 34.6643 32.4274 34.7389 32.2566C35.0488 31.5462 35.7077 31.0873 36.4177 31.0873C37.4454 31.0873 38.2814 32.0148 38.2814 33.1548C38.2813 34.2689 36.2013 36.3625 35.0838 37.4873Z" fill="#255B2D"/>
</g>
<defs>
<clipPath id="clip0_1_2391">
<rect width="40" height="40" fill="white"/>
</clipPath>
</defs>
</svg>
