<svg width="36" height="36" viewBox="0 0 36 36" fill="none" xmlns="http://www.w3.org/2000/svg">
<path fill-rule="evenodd" clip-rule="evenodd" d="M18 34C26.8365 34 34 26.8365 34 18C34 9.16345 26.8365 2 18 2C9.16345 2 2 9.16345 2 18C2 26.8365 9.16345 34 18 34Z" fill="#255B2D"/>
<path d="M24.0633 11.0008C23.5744 11.0159 23.1104 11.2324 22.7691 11.6043C19.8322 14.7281 17.5679 17.3474 14.8768 20.2717L12.1415 17.4831C11.9542 17.3043 11.7349 17.1671 11.4967 17.0799C11.2585 16.9927 11.0062 16.9571 10.7548 16.9753C10.5034 16.9934 10.2579 17.065 10.0331 17.1857C9.80819 17.3063 9.60844 17.4737 9.44564 17.6778C9.28283 17.8819 9.1603 18.1187 9.0853 18.3739C9.01031 18.6293 8.98437 18.8979 9.00904 19.1642C9.0337 19.4303 9.10846 19.6885 9.22888 19.9234C9.34931 20.1583 9.51293 20.3651 9.71008 20.5318L13.7886 24.5273C14.1495 24.8513 14.6119 25.0194 15.0842 24.9982C15.5565 24.977 16.0039 24.7681 16.3377 24.4129C19.723 20.8123 22.1283 17.9419 25.4359 14.4241C25.7061 14.1427 25.8901 13.7815 25.9639 13.3877C26.0377 12.9937 25.9979 12.5853 25.8496 12.2157C25.7014 11.8461 25.4517 11.5324 25.1331 11.3157C24.8144 11.099 24.4417 10.9893 24.0633 11.0008Z" fill="white"/>
</svg>
