<svg width="185" height="381" viewBox="0 0 185 381" fill="none" xmlns="http://www.w3.org/2000/svg">
<path opacity="0.15" d="M352.557 101.911L123.29 8.0125C112.485 3.58732 100.342 8.83907 96.1658 19.7426L7.56154 251.107C3.38588 262.011 8.75977 274.437 19.5645 278.862L248.831 372.761C259.636 377.186 271.78 371.934 275.955 361.031L364.56 129.666C368.735 118.763 363.362 106.337 352.557 101.911Z" stroke="#0F8536" stroke-width="8"/>
<path opacity="0.15" d="M307.288 125.966L140.354 57.5958C132.487 54.3737 123.645 58.1976 120.604 66.1367L56.0895 234.598C53.0491 242.537 56.962 251.585 64.8291 254.807L231.763 323.177C239.63 326.399 248.473 322.575 251.513 314.636L316.028 146.175C319.068 138.236 315.155 129.188 307.288 125.966Z" stroke="#0F8536" stroke-width="8"/>
</svg>
