<svg width="1728" height="710" viewBox="0 0 1728 710" fill="none" xmlns="http://www.w3.org/2000/svg">
<rect opacity="0.4" width="1293" height="710" rx="46.2651" fill="#EFFFE8"/>
<path d="M1195 46.2651C1195 20.7136 1215.71 0 1241.27 0H1732V710H1241.27C1215.71 710 1195 689.286 1195 663.735V46.2651Z" fill="url(#paint0_linear_1_2251)"/>
<g opacity="0.3">
<ellipse cx="756.401" cy="95.8311" rx="2.40141" ry="2.46387" fill="#8DEDA8"/>
<ellipse cx="770.812" cy="95.8311" rx="2.40141" ry="2.46387" fill="#8DEDA8"/>
<ellipse cx="785.218" cy="95.8311" rx="2.40141" ry="2.46387" fill="#8DEDA8"/>
<ellipse cx="799.628" cy="95.8311" rx="2.40141" ry="2.46387" fill="#8DEDA8"/>
<ellipse cx="814.034" cy="95.8311" rx="2.40141" ry="2.46387" fill="#8DEDA8"/>
<ellipse cx="828.444" cy="95.8311" rx="2.40141" ry="2.46387" fill="#8DEDA8"/>
<ellipse cx="842.851" cy="95.8311" rx="2.40141" ry="2.46387" fill="#8DEDA8"/>
<ellipse cx="857.261" cy="95.8311" rx="2.40141" ry="2.46387" fill="#8DEDA8"/>
<ellipse cx="871.667" cy="95.8311" rx="2.40141" ry="2.46387" fill="#8DEDA8"/>
<ellipse cx="886.077" cy="95.8311" rx="2.40141" ry="2.46387" fill="#8DEDA8"/>
<ellipse cx="900.487" cy="95.8311" rx="2.40141" ry="2.46387" fill="#8DEDA8"/>
<ellipse cx="914.894" cy="95.8311" rx="2.40141" ry="2.46387" fill="#8DEDA8"/>
<ellipse cx="756.401" cy="110.616" rx="2.40141" ry="2.46387" fill="#8DEDA8"/>
<ellipse cx="770.812" cy="110.616" rx="2.40141" ry="2.46387" fill="#8DEDA8"/>
<ellipse cx="785.218" cy="110.616" rx="2.40141" ry="2.46387" fill="#8DEDA8"/>
<ellipse cx="799.628" cy="110.616" rx="2.40141" ry="2.46387" fill="#8DEDA8"/>
<ellipse cx="814.034" cy="110.616" rx="2.40141" ry="2.46387" fill="#8DEDA8"/>
<ellipse cx="828.444" cy="110.616" rx="2.40141" ry="2.46387" fill="#8DEDA8"/>
<ellipse cx="842.851" cy="110.616" rx="2.40141" ry="2.46387" fill="#8DEDA8"/>
<ellipse cx="857.261" cy="110.616" rx="2.40141" ry="2.46387" fill="#8DEDA8"/>
<ellipse cx="871.667" cy="110.616" rx="2.40141" ry="2.46387" fill="#8DEDA8"/>
<ellipse cx="886.077" cy="110.616" rx="2.40141" ry="2.46387" fill="#8DEDA8"/>
<ellipse cx="900.487" cy="110.616" rx="2.40141" ry="2.46387" fill="#8DEDA8"/>
<ellipse cx="914.894" cy="110.616" rx="2.40141" ry="2.46387" fill="#8DEDA8"/>
<ellipse cx="756.401" cy="125.397" rx="2.40141" ry="2.46387" fill="#8DEDA8"/>
<ellipse cx="770.812" cy="125.397" rx="2.40141" ry="2.46387" fill="#8DEDA8"/>
<ellipse cx="785.218" cy="125.397" rx="2.40141" ry="2.46387" fill="#8DEDA8"/>
<ellipse cx="799.628" cy="125.397" rx="2.40141" ry="2.46387" fill="#8DEDA8"/>
<ellipse cx="814.034" cy="125.397" rx="2.40141" ry="2.46387" fill="#8DEDA8"/>
<ellipse cx="828.444" cy="125.397" rx="2.40141" ry="2.46387" fill="#8DEDA8"/>
<ellipse cx="842.851" cy="125.397" rx="2.40141" ry="2.46387" fill="#8DEDA8"/>
<ellipse cx="857.261" cy="125.397" rx="2.40141" ry="2.46387" fill="#8DEDA8"/>
<ellipse cx="871.667" cy="125.397" rx="2.40141" ry="2.46387" fill="#8DEDA8"/>
<ellipse cx="886.077" cy="125.397" rx="2.40141" ry="2.46387" fill="#8DEDA8"/>
<ellipse cx="900.487" cy="125.397" rx="2.40141" ry="2.46387" fill="#8DEDA8"/>
<ellipse cx="914.894" cy="125.397" rx="2.40141" ry="2.46387" fill="#8DEDA8"/>
<ellipse cx="756.401" cy="140.183" rx="2.40141" ry="2.46387" fill="#8DEDA8"/>
<ellipse cx="770.812" cy="140.183" rx="2.40141" ry="2.46387" fill="#8DEDA8"/>
<ellipse cx="785.218" cy="140.183" rx="2.40141" ry="2.46387" fill="#8DEDA8"/>
<ellipse cx="799.628" cy="140.183" rx="2.40141" ry="2.46387" fill="#8DEDA8"/>
<ellipse cx="814.034" cy="140.183" rx="2.40141" ry="2.46387" fill="#8DEDA8"/>
<ellipse cx="828.444" cy="140.183" rx="2.40141" ry="2.46387" fill="#8DEDA8"/>
<ellipse cx="842.851" cy="140.183" rx="2.40141" ry="2.46387" fill="#8DEDA8"/>
<ellipse cx="857.261" cy="140.183" rx="2.40141" ry="2.46387" fill="#8DEDA8"/>
<ellipse cx="871.667" cy="140.183" rx="2.40141" ry="2.46387" fill="#8DEDA8"/>
<ellipse cx="886.077" cy="140.183" rx="2.40141" ry="2.46387" fill="#8DEDA8"/>
<ellipse cx="900.487" cy="140.183" rx="2.40141" ry="2.46387" fill="#8DEDA8"/>
<ellipse cx="914.894" cy="140.183" rx="2.40141" ry="2.46387" fill="#8DEDA8"/>
<ellipse cx="756.401" cy="154.964" rx="2.40141" ry="2.46387" fill="#8DEDA8"/>
<ellipse cx="770.812" cy="154.964" rx="2.40141" ry="2.46387" fill="#8DEDA8"/>
<ellipse cx="785.218" cy="154.964" rx="2.40141" ry="2.46387" fill="#8DEDA8"/>
<ellipse cx="799.628" cy="154.964" rx="2.40141" ry="2.46387" fill="#8DEDA8"/>
<ellipse cx="814.034" cy="154.964" rx="2.40141" ry="2.46387" fill="#8DEDA8"/>
<ellipse cx="828.444" cy="154.964" rx="2.40141" ry="2.46387" fill="#8DEDA8"/>
<ellipse cx="842.851" cy="154.964" rx="2.40141" ry="2.46387" fill="#8DEDA8"/>
<ellipse cx="857.261" cy="154.964" rx="2.40141" ry="2.46387" fill="#8DEDA8"/>
<ellipse cx="871.667" cy="154.964" rx="2.40141" ry="2.46387" fill="#8DEDA8"/>
<ellipse cx="886.077" cy="154.964" rx="2.40141" ry="2.46387" fill="#8DEDA8"/>
<ellipse cx="900.487" cy="154.964" rx="2.40141" ry="2.46387" fill="#8DEDA8"/>
<ellipse cx="914.894" cy="154.964" rx="2.40141" ry="2.46387" fill="#8DEDA8"/>
<ellipse cx="756.401" cy="169.749" rx="2.40141" ry="2.46387" fill="#8DEDA8"/>
<ellipse cx="770.812" cy="169.749" rx="2.40141" ry="2.46387" fill="#8DEDA8"/>
<ellipse cx="785.218" cy="169.749" rx="2.40141" ry="2.46387" fill="#8DEDA8"/>
<ellipse cx="799.628" cy="169.749" rx="2.40141" ry="2.46387" fill="#8DEDA8"/>
<ellipse cx="814.034" cy="169.749" rx="2.40141" ry="2.46387" fill="#8DEDA8"/>
<ellipse cx="828.444" cy="169.749" rx="2.40141" ry="2.46387" fill="#8DEDA8"/>
<ellipse cx="842.851" cy="169.749" rx="2.40141" ry="2.46387" fill="#8DEDA8"/>
<ellipse cx="857.261" cy="169.749" rx="2.40141" ry="2.46387" fill="#8DEDA8"/>
<ellipse cx="871.667" cy="169.749" rx="2.40141" ry="2.46387" fill="#8DEDA8"/>
<ellipse cx="886.077" cy="169.749" rx="2.40141" ry="2.46387" fill="#8DEDA8"/>
<ellipse cx="900.487" cy="169.749" rx="2.40141" ry="2.46387" fill="#8DEDA8"/>
<ellipse cx="914.894" cy="169.749" rx="2.40141" ry="2.46387" fill="#8DEDA8"/>
<ellipse cx="756.401" cy="184.53" rx="2.40141" ry="2.46387" fill="#8DEDA8"/>
<ellipse cx="770.812" cy="184.53" rx="2.40141" ry="2.46387" fill="#8DEDA8"/>
<ellipse cx="785.218" cy="184.53" rx="2.40141" ry="2.46387" fill="#8DEDA8"/>
<ellipse cx="799.628" cy="184.53" rx="2.40141" ry="2.46387" fill="#8DEDA8"/>
<ellipse cx="814.034" cy="184.53" rx="2.40141" ry="2.46387" fill="#8DEDA8"/>
<ellipse cx="828.444" cy="184.53" rx="2.40141" ry="2.46387" fill="#8DEDA8"/>
<ellipse cx="842.851" cy="184.53" rx="2.40141" ry="2.46387" fill="#8DEDA8"/>
<ellipse cx="857.261" cy="184.53" rx="2.40141" ry="2.46387" fill="#8DEDA8"/>
<ellipse cx="871.667" cy="184.53" rx="2.40141" ry="2.46387" fill="#8DEDA8"/>
<ellipse cx="886.077" cy="184.53" rx="2.40141" ry="2.46387" fill="#8DEDA8"/>
<ellipse cx="900.487" cy="184.53" rx="2.40141" ry="2.46387" fill="#8DEDA8"/>
<ellipse cx="914.894" cy="184.53" rx="2.40141" ry="2.46387" fill="#8DEDA8"/>
<ellipse cx="756.401" cy="199.315" rx="2.40141" ry="2.46387" fill="#8DEDA8"/>
<ellipse cx="770.812" cy="199.315" rx="2.40141" ry="2.46387" fill="#8DEDA8"/>
<ellipse cx="785.218" cy="199.315" rx="2.40141" ry="2.46387" fill="#8DEDA8"/>
<ellipse cx="799.628" cy="199.315" rx="2.40141" ry="2.46387" fill="#8DEDA8"/>
<ellipse cx="814.034" cy="199.315" rx="2.40141" ry="2.46387" fill="#8DEDA8"/>
<ellipse cx="828.444" cy="199.315" rx="2.40141" ry="2.46387" fill="#8DEDA8"/>
<ellipse cx="842.851" cy="199.315" rx="2.40141" ry="2.46387" fill="#8DEDA8"/>
<ellipse cx="857.261" cy="199.315" rx="2.40141" ry="2.46387" fill="#8DEDA8"/>
<ellipse cx="871.667" cy="199.315" rx="2.40141" ry="2.46387" fill="#8DEDA8"/>
<ellipse cx="886.077" cy="199.315" rx="2.40141" ry="2.46387" fill="#8DEDA8"/>
<ellipse cx="900.487" cy="199.315" rx="2.40141" ry="2.46387" fill="#8DEDA8"/>
<ellipse cx="914.894" cy="199.315" rx="2.40141" ry="2.46387" fill="#8DEDA8"/>
</g>
<defs>
<linearGradient id="paint0_linear_1_2251" x1="1527.01" y1="-26.3732" x2="1527.01" y2="710" gradientUnits="userSpaceOnUse">
<stop stop-color="#B0FFC4"/>
<stop offset="0.731402" stop-color="#47C972"/>
</linearGradient>
</defs>
</svg>
