<svg width="169" height="321" viewBox="0 0 169 321" fill="none" xmlns="http://www.w3.org/2000/svg">
<path opacity="0.15" d="M152.004 234.921L-41.1363 314.023C-50.2384 317.751 -60.4688 313.327 -63.9865 304.142L-138.629 109.234C-142.147 100.049 -137.62 89.5807 -128.518 85.8528L64.6227 6.74996C73.7248 3.02207 83.9552 7.44626 87.4729 16.6317L162.115 211.539C165.633 220.724 161.106 231.193 152.004 234.921Z" stroke="#0F8536" stroke-width="8"/>
<path opacity="0.15" d="M113.868 214.657L-26.7616 272.253C-33.3891 274.968 -40.8381 271.746 -43.3994 265.058L-97.7483 123.142C-100.31 116.454 -97.0133 108.831 -90.3858 106.117L50.2438 48.5206C56.8713 45.8062 64.3203 49.0276 66.8816 55.7157L121.23 197.632C123.792 204.32 120.495 211.942 113.868 214.657Z" stroke="#0F8536" stroke-width="8"/>
</svg>
