<svg width="130" height="22" viewBox="0 0 130 22" fill="none" xmlns="http://www.w3.org/2000/svg">
<path d="M10.5 0.448242L13.8945 6.27617L20.4861 7.70356L15.9924 12.7328L16.6717 19.4429L10.5 16.7232L4.32825 19.4429L5.00765 12.7328L0.513906 7.70356L7.10554 6.27617L10.5 0.448242Z" fill="#FFB800"/>
<path d="M37.4103 0.448242L40.8048 6.27617L47.3964 7.70356L42.9027 12.7328L43.5821 19.4429L37.4103 16.7232L31.2386 19.4429L31.918 12.7328L27.4242 7.70356L34.0159 6.27617L37.4103 0.448242Z" fill="#FFB800"/>
<path d="M64.3207 0.448242L67.7151 6.27617L74.3068 7.70356L69.813 12.7328L70.4924 19.4429L64.3207 16.7232L58.1489 19.4429L58.8283 12.7328L54.3346 7.70356L60.9262 6.27617L64.3207 0.448242Z" fill="#FFB800"/>
<path d="M91.231 0.448242L94.6254 6.27617L101.217 7.70356L96.7233 12.7328L97.4027 19.4429L91.231 16.7232L85.0592 19.4429L85.7386 12.7328L81.2449 7.70356L87.8365 6.27617L91.231 0.448242Z" fill="#FFB800"/>
<path d="M118.141 0.448242L121.536 6.27617L128.127 7.70356L123.634 12.7328L124.313 19.4429L118.141 16.7232L111.97 19.4429L112.649 12.7328L108.155 7.70356L114.747 6.27617L118.141 0.448242Z" fill="#FFB800"/>
</svg>
