<svg width="138" height="137" viewBox="0 0 138 137" fill="none" xmlns="http://www.w3.org/2000/svg">
<g filter="url(#filter0_d_1_2389)">
<rect x="33" y="12" width="72" height="72" rx="12.8075" fill="white"/>
</g>
<g clip-path="url(#clip0_1_2389)">
<path d="M55.6436 40.1C55.8023 40.1916 55.9764 40.2374 56.1506 40.2374C56.3253 40.2374 56.5002 40.1914 56.6596 40.0993L59.1717 38.649C59.4902 38.4651 59.6803 38.1363 59.6803 37.7694C59.6803 37.4025 59.4902 37.0737 59.1717 36.8898L56.6596 35.4395C56.3412 35.2556 55.9613 35.2555 55.6436 35.4389C55.326 35.6223 55.1363 35.9514 55.1363 36.3191V39.2198C55.1362 39.5875 55.3259 39.9166 55.6436 40.1ZM56.0737 36.3191C56.0737 36.3076 56.0737 36.273 56.1124 36.2507C56.125 36.2434 56.1378 36.2398 56.1507 36.2398C56.164 36.2398 56.1774 36.2437 56.1909 36.2514L58.703 37.7017C58.7128 37.7074 58.7429 37.7247 58.7429 37.7694C58.7429 37.8141 58.7129 37.8313 58.703 37.837L56.1909 39.2873C56.181 39.2931 56.151 39.3103 56.1124 39.288C56.0737 39.2657 56.0737 39.2311 56.0737 39.2197V36.3191ZM51.8126 43.0009H61.9874C63.1074 43.0009 64.0186 42.0897 64.0186 40.9697V34.5691C64.0186 33.4491 63.1074 32.5379 61.9874 32.5379H51.8126C50.6926 32.5379 49.7813 33.4491 49.7813 34.5691V40.9697C49.7814 42.0897 50.6926 43.0009 51.8126 43.0009ZM50.7189 34.5691C50.7189 33.9661 51.2095 33.4754 51.8127 33.4754H61.9874C62.5906 33.4754 63.0812 33.966 63.0812 34.5691V40.9697C63.0812 41.5727 62.5906 42.0634 61.9874 42.0634H51.8126C51.2095 42.0634 50.7188 41.5728 50.7188 40.9697V34.5691H50.7189ZM74.3212 49.2811C74.2667 49.0776 74.0832 48.9355 73.8726 48.9337L71.7377 48.9148L70.1506 42.9912C70.0356 42.5619 69.7592 42.2024 69.3722 41.9791C68.9853 41.7557 68.5358 41.6959 68.1063 41.8111C67.677 41.9262 67.3175 42.2026 67.0942 42.5894C66.8708 42.9763 66.8111 43.4259 66.9262 43.8552L67.1092 44.5381C66.4086 45.8314 63.9564 49.448 57.6846 51.4658C56.5355 51.8355 55.3367 52.1356 54.1772 52.4259C53.5924 52.5723 52.9877 52.7237 52.394 52.8828C51.4742 53.1293 50.7104 53.7238 50.2434 54.5569C49.7745 55.3931 49.6577 56.3812 49.9145 57.3391C50.3604 59.0034 51.7848 60.0814 53.3671 60.0812C53.6708 60.0812 53.9806 60.0415 54.29 59.9587C54.3617 59.9394 54.4337 59.9196 54.5056 59.9L57.629 65.3099C57.9657 65.893 58.5785 66.2194 59.2077 66.2193C59.5162 66.2193 59.8287 66.1409 60.1145 65.9759C60.5341 65.7336 60.8346 65.3412 60.9607 64.8707C61.0867 64.4003 61.0227 63.9101 60.7805 63.4905L58.1248 58.8907C58.6092 58.7641 59.0953 58.6448 59.5802 58.5403C66.021 57.1519 69.9527 59.0579 71.206 59.8276L71.3889 60.5105C71.5885 61.2553 72.2646 61.7478 73.0017 61.7477C73.1442 61.7477 73.2891 61.7293 73.4331 61.6908C74.3221 61.4525 74.8516 60.5355 74.6133 59.6466L73.0261 53.723L74.8655 52.6391C75.047 52.5323 75.1348 52.3174 75.0803 52.114L74.3212 49.2811ZM54.0473 59.0529C52.6331 59.432 51.2154 58.5723 50.8199 57.0963C50.6269 56.3759 50.7125 55.6369 51.061 55.0152C51.4035 54.4045 51.963 53.9687 52.6366 53.7883C53.2228 53.6312 53.8238 53.4807 54.4049 53.3352C55.4235 53.0802 56.4722 52.8175 57.5017 52.5048L58.9023 57.7317C57.8546 57.9756 56.8154 58.2723 55.806 58.5608C55.2296 58.7255 54.6338 58.8958 54.0473 59.0529ZM59.9685 63.959C60.0856 64.1617 60.1163 64.3993 60.055 64.6279C59.9938 64.8565 59.8484 65.0468 59.6456 65.1638C59.4429 65.2808 59.2055 65.3117 58.9767 65.2504C58.7481 65.1891 58.5578 65.0437 58.4408 64.841L55.4381 59.6403C55.6481 59.5808 55.8573 59.5212 56.0635 59.4623C56.4349 59.3562 56.8106 59.2491 57.1885 59.1439L59.9685 63.959ZM59.8199 57.5341L58.3952 52.2173C62.3731 50.8526 65.6538 48.5142 67.4467 45.798L70.8683 58.5676C67.9574 57.1118 63.9472 56.7269 59.8199 57.5341ZM73.1905 60.7851C72.8006 60.8896 72.3988 60.6574 72.2944 60.2678L67.8317 43.6126C67.7814 43.4251 67.8078 43.2282 67.906 43.0581C68.0042 42.8881 68.1615 42.7668 68.349 42.7166C68.4111 42.6999 68.4742 42.6917 68.537 42.6917C68.6639 42.6917 68.7896 42.7253 68.9034 42.7909C69.0734 42.8891 69.1947 43.0464 69.2449 43.2338L73.7077 59.8891C73.8121 60.2787 73.5801 60.6807 73.1905 60.7851ZM72.7742 52.7832L71.9895 49.8545L73.5078 49.868L74.0824 52.0123L72.7742 52.7832ZM76.6715 44.1637L75.0133 47.0359C74.9265 47.1862 74.7689 47.2703 74.6069 47.2703C74.5274 47.2703 74.4468 47.2501 74.373 47.2074C74.1488 47.078 74.072 46.7912 74.2014 46.5671L75.8596 43.695C75.9891 43.4708 76.2758 43.3941 76.4999 43.5234C76.7241 43.6529 76.8009 43.9395 76.6715 44.1637ZM79.2056 56.1825L76.3335 54.5242C76.1092 54.3948 76.0324 54.1081 76.1619 53.8839C76.2913 53.6598 76.5781 53.583 76.8022 53.7123L79.6743 55.3706C79.8985 55.5001 79.9753 55.7867 79.8459 56.0109C79.7591 56.1613 79.6015 56.2454 79.4395 56.2454C79.36 56.2454 79.2794 56.2251 79.2056 56.1825ZM76.9817 49.6011L80.1851 48.7427C80.4349 48.6756 80.6921 48.8241 80.7592 49.0742C80.8262 49.3243 80.6777 49.5813 80.4277 49.6483L77.2242 50.5067C77.1836 50.5176 77.1428 50.5227 77.1026 50.5227C76.8956 50.5227 76.7063 50.3846 76.6501 50.1752C76.5831 49.9251 76.7316 49.6681 76.9817 49.6011ZM85.7531 27.781H74.3379C72.9783 27.781 71.8721 28.8872 71.8721 30.2468V36.052C71.8721 37.4116 72.9783 38.5178 74.3379 38.5178H75.5585V41.196C75.5585 41.3773 75.6631 41.5424 75.827 41.6198C75.8909 41.65 75.9592 41.6648 76.0272 41.6648C76.1338 41.6648 76.2395 41.6284 76.325 41.558L80.0217 38.5178H85.7532C87.1128 38.5178 88.219 37.4116 88.219 36.052V30.2468C88.2188 28.8872 87.1127 27.781 85.7531 27.781ZM87.2813 36.0519C87.2813 36.8946 86.5958 37.5802 85.7531 37.5802H79.8536C79.745 37.5802 79.6398 37.618 79.5559 37.6869L76.496 40.2035V38.049C76.496 37.7901 76.286 37.5802 76.0272 37.5802H74.3379C73.4952 37.5802 72.8096 36.8947 72.8096 36.0519V30.2468C72.8096 29.4041 73.4952 28.7185 74.3379 28.7185H85.7531C86.5958 28.7185 87.2814 29.4041 87.2814 30.2468V36.0519H87.2813ZM85.3623 30.9521C85.3623 31.2109 85.1524 31.4208 84.8935 31.4208H75.1975C74.9387 31.4208 74.7288 31.2109 74.7288 30.9521C74.7288 30.6933 74.9387 30.4833 75.1975 30.4833H84.8935C85.1524 30.4833 85.3623 30.6932 85.3623 30.9521ZM85.3623 35.3466C85.3623 35.6054 85.1524 35.8153 84.8935 35.8153H79.8536C79.5948 35.8153 79.3849 35.6054 79.3849 35.3466C79.3849 35.0877 79.5948 34.8778 79.8536 34.8778H84.8935C85.1524 34.8778 85.3623 35.0877 85.3623 35.3466ZM85.3623 33.1494C85.3623 33.4082 85.1524 33.6181 84.8935 33.6181H75.1975C74.9387 33.6181 74.7288 33.4082 74.7288 33.1494C74.7288 32.8905 74.9387 32.6806 75.1975 32.6806H84.8935C85.1524 32.6806 85.3623 32.8905 85.3623 33.1494ZM85.4177 57.1498C84.6013 57.1498 83.834 57.5362 83.3092 58.1773C82.7844 57.5362 82.0172 57.1498 81.2008 57.1498C79.6562 57.1498 78.3995 58.4978 78.3995 60.1548C78.3995 61.5406 80.041 63.3075 81.8696 65.148C82.166 65.4463 82.422 65.704 82.6124 65.91C82.7936 66.1061 83.0476 66.2185 83.3093 66.2185C83.571 66.2184 83.825 66.106 84.006 65.91C84.1964 65.704 84.4524 65.4463 84.7488 65.148C86.5774 63.3075 88.2188 61.5407 88.2188 60.1548C88.2188 58.4978 86.9622 57.1498 85.4177 57.1498ZM84.0838 64.4873C83.781 64.792 83.5195 65.0553 83.3175 65.2737C83.3128 65.2787 83.3098 65.2805 83.3096 65.2809C83.3086 65.2805 83.3055 65.2788 83.3008 65.2737C83.0989 65.0552 82.8374 64.792 82.5345 64.4873C81.417 63.3626 79.337 61.2689 79.337 60.1548C79.337 59.0148 80.1731 58.0873 81.2007 58.0873C81.9106 58.0873 82.5696 58.5462 82.8795 59.2566C82.9541 59.4274 83.1227 59.5379 83.3092 59.5379C83.4956 59.5379 83.6643 59.4274 83.7389 59.2566C84.0488 58.5462 84.7077 58.0873 85.4177 58.0873C86.4454 58.0873 87.2814 59.0148 87.2814 60.1548C87.2813 61.2689 85.2013 63.3625 84.0838 64.4873Z" fill="#255B2D"/>
</g>
<defs>
<filter id="filter0_d_1_2389" x="0.981266" y="-0.00702477" width="136.037" height="136.037" filterUnits="userSpaceOnUse" color-interpolation-filters="sRGB">
<feFlood flood-opacity="0" result="BackgroundImageFix"/>
<feColorMatrix in="SourceAlpha" type="matrix" values="0 0 0 0 0 0 0 0 0 0 0 0 0 0 0 0 0 0 127 0" result="hardAlpha"/>
<feOffset dy="20.0117"/>
<feGaussianBlur stdDeviation="16.0094"/>
<feComposite in2="hardAlpha" operator="out"/>
<feColorMatrix type="matrix" values="0 0 0 0 0 0 0 0 0 0 0 0 0 0 0 0 0 0 0.05 0"/>
<feBlend mode="normal" in2="BackgroundImageFix" result="effect1_dropShadow_1_2389"/>
<feBlend mode="normal" in="SourceGraphic" in2="effect1_dropShadow_1_2389" result="shape"/>
</filter>
<clipPath id="clip0_1_2389">
<rect width="40" height="40" fill="white" transform="translate(49 27)"/>
</clipPath>
</defs>
</svg>
