<svg width="138" height="137" viewBox="0 0 138 137" fill="none" xmlns="http://www.w3.org/2000/svg">
<g filter="url(#filter0_d_1_2374)">
<rect x="33" y="12" width="72" height="72" rx="12.8075" fill="white"/>
</g>
<g clip-path="url(#clip0_1_2374)">
<path d="M64.8333 41.3333H51.5C50.1217 41.3333 49 40.2117 49 38.8333V30.5C49 29.1217 50.1217 28 51.5 28H64.8333C66.2117 28 67.3333 29.1217 67.3333 30.5V38.8333C67.3333 40.2117 66.2117 41.3333 64.8333 41.3333ZM51.5 29.6667C51.0417 29.6667 50.6667 30.04 50.6667 30.5V38.8333C50.6667 39.2933 51.0417 39.6667 51.5 39.6667H64.8333C65.2917 39.6667 65.6667 39.2933 65.6667 38.8333V30.5C65.6667 30.04 65.2917 29.6667 64.8333 29.6667H51.5Z" fill="#255B2D"/>
<path d="M64.8333 68.0001H51.5C50.1217 68.0001 49 66.8784 49 65.5001V47.1667C49 45.7884 50.1217 44.6667 51.5 44.6667H64.8333C66.2117 44.6667 67.3333 45.7884 67.3333 47.1667V65.5001C67.3333 66.8784 66.2117 68.0001 64.8333 68.0001ZM51.5 46.3334C51.0417 46.3334 50.6667 46.7067 50.6667 47.1667V65.5001C50.6667 65.9601 51.0417 66.3334 51.5 66.3334H64.8333C65.2917 66.3334 65.6667 65.9601 65.6667 65.5001V47.1667C65.6667 46.7067 65.2917 46.3334 64.8333 46.3334H51.5Z" fill="#255B2D"/>
<path d="M86.5 68.0001H73.1667C71.7883 68.0001 70.6667 66.8784 70.6667 65.5001V57.1667C70.6667 55.7884 71.7883 54.6667 73.1667 54.6667H86.5C87.8783 54.6667 89 55.7884 89 57.1667V65.5001C89 66.8784 87.8783 68.0001 86.5 68.0001ZM73.1667 56.3334C72.7083 56.3334 72.3333 56.7067 72.3333 57.1667V65.5001C72.3333 65.9601 72.7083 66.3334 73.1667 66.3334H86.5C86.9583 66.3334 87.3333 65.9601 87.3333 65.5001V57.1667C87.3333 56.7067 86.9583 56.3334 86.5 56.3334H73.1667Z" fill="#255B2D"/>
<path d="M86.5 51.3333H73.1667C71.7883 51.3333 70.6667 50.2117 70.6667 48.8333V30.5C70.6667 29.1217 71.7883 28 73.1667 28H86.5C87.8783 28 89 29.1217 89 30.5V48.8333C89 50.2117 87.8783 51.3333 86.5 51.3333ZM73.1667 29.6667C72.7083 29.6667 72.3333 30.04 72.3333 30.5V48.8333C72.3333 49.2933 72.7083 49.6667 73.1667 49.6667H86.5C86.9583 49.6667 87.3333 49.2933 87.3333 48.8333V30.5C87.3333 30.04 86.9583 29.6667 86.5 29.6667H73.1667Z" fill="#255B2D"/>
</g>
<defs>
<filter id="filter0_d_1_2374" x="0.981266" y="-0.00702477" width="136.037" height="136.037" filterUnits="userSpaceOnUse" color-interpolation-filters="sRGB">
<feFlood flood-opacity="0" result="BackgroundImageFix"/>
<feColorMatrix in="SourceAlpha" type="matrix" values="0 0 0 0 0 0 0 0 0 0 0 0 0 0 0 0 0 0 127 0" result="hardAlpha"/>
<feOffset dy="20.0117"/>
<feGaussianBlur stdDeviation="16.0094"/>
<feComposite in2="hardAlpha" operator="out"/>
<feColorMatrix type="matrix" values="0 0 0 0 0 0 0 0 0 0 0 0 0 0 0 0 0 0 0.03 0"/>
<feBlend mode="normal" in2="BackgroundImageFix" result="effect1_dropShadow_1_2374"/>
<feBlend mode="normal" in="SourceGraphic" in2="effect1_dropShadow_1_2374" result="shape"/>
</filter>
<clipPath id="clip0_1_2374">
<rect width="40" height="40" fill="white" transform="translate(49 28)"/>
</clipPath>
</defs>
</svg>
