<svg width="138" height="137" viewBox="0 0 138 137" fill="none" xmlns="http://www.w3.org/2000/svg">
<g filter="url(#filter0_d_1_2365)">
<rect x="33" y="12" width="72" height="72" rx="12.8075" fill="white"/>
</g>
<g clip-path="url(#clip0_1_2365)">
<path d="M77.1474 36.9914V28.6248C77.1474 28.2799 77.427 28.0002 77.772 28.0002H86.8184C87.1634 28.0002 87.443 28.2799 87.443 28.6248C87.443 28.9697 87.1634 29.2493 86.8184 29.2493H78.3964V36.3669H86.1939V33.496L84.4876 35.0445C84.3683 35.1527 84.218 35.2065 84.068 35.2065C83.9078 35.2065 83.748 35.1452 83.6263 35.0236L81.8524 33.2497C81.6085 33.0058 81.6085 32.6104 81.8524 32.3665C82.0963 32.1226 82.4917 32.1226 82.7356 32.3665L84.0888 33.7197L87.9556 30.2108C88.211 29.979 88.6059 29.9982 88.8377 30.2535C89.0695 30.509 89.0504 30.9039 88.795 31.1357L87.443 32.3626V36.9914C87.443 37.3363 87.1634 37.6159 86.8184 37.6159H77.7719C77.427 37.6159 77.1474 37.3363 77.1474 36.9914ZM77.7719 52.8078H86.8184C87.1633 52.8078 87.4429 52.5282 87.4429 52.1833V47.5659C87.4429 47.5623 87.4424 47.5587 87.4424 47.5549L88.7949 46.3276C89.0503 46.0958 89.0695 45.7009 88.8377 45.4454C88.6059 45.19 88.2109 45.1708 87.9555 45.4027L84.0888 48.9116L82.7356 47.5584C82.4916 47.3145 82.0963 47.3145 81.8524 47.5584C81.6084 47.8023 81.6084 48.1977 81.8524 48.4416L83.6263 50.2155C83.7479 50.3371 83.9077 50.3984 84.0679 50.3984C84.2179 50.3984 84.3682 50.3446 84.4875 50.2363L86.1938 48.6879V51.5588H78.3963V44.4434H86.8184C87.1633 44.4434 87.4429 44.1638 87.4429 43.8189C87.4429 43.474 87.1633 43.1944 86.8184 43.1944H77.7719C77.427 43.1944 77.1474 43.474 77.1474 43.8189V52.1833C77.1474 52.5282 77.427 52.8078 77.7719 52.8078ZM88.8377 60.6374C88.6059 60.382 88.211 60.3628 87.9556 60.5946L84.0888 64.1035L82.7356 62.7503C82.4917 62.5064 82.0963 62.5064 81.8524 62.7503C81.6085 62.9942 81.6085 63.3896 81.8524 63.6335L83.6263 65.4074C83.748 65.5291 83.9078 65.5903 84.068 65.5903C84.218 65.5903 84.3683 65.5366 84.4876 65.4283L86.1939 63.8799V66.7508H78.3964V59.6354H86.8184C87.1634 59.6354 87.443 59.3558 87.443 59.0109C87.443 58.666 87.1634 58.3863 86.8184 58.3863H77.7719C77.427 58.3863 77.1474 58.666 77.1474 59.0109V67.3752C77.1474 67.7202 77.427 67.9998 77.7719 67.9998H86.8184C87.1633 67.9998 87.4429 67.7202 87.4429 67.3752V62.7465L88.7949 61.5196C89.0503 61.2878 89.0695 60.8928 88.8377 60.6374ZM75.3602 33.4326C75.7052 33.4326 75.9848 33.153 75.9848 32.8081C75.9848 32.4631 75.7052 32.1835 75.3602 32.1835H72.1491C71.8042 32.1835 71.5245 32.4631 71.5245 32.8081V47.3755H70.0053C69.6604 47.3755 69.3808 47.6551 69.3808 48C69.3808 48.3449 69.6604 48.6245 70.0053 48.6245H71.5245V63.192C71.5245 63.5369 71.8042 63.8165 72.1491 63.8165H75.3602C75.7052 63.8165 75.9848 63.5369 75.9848 63.192C75.9848 62.847 75.7052 62.5674 75.3602 62.5674H72.7736V48.6245H75.3602C75.7052 48.6245 75.9848 48.3449 75.9848 48C75.9848 47.6551 75.7052 47.3755 75.3602 47.3755H72.7736V33.4326H75.3602ZM66.5809 40.6542C66.6923 40.7704 66.7545 40.9252 66.7545 41.0861V59.797C66.7545 60.1419 66.4749 60.4215 66.1299 60.4215H49.6248C49.2799 60.4215 49.0002 60.1419 49.0002 59.797V36.2031C49.0002 35.8581 49.2799 35.5785 49.6248 35.5785H61.4527C61.6231 35.5785 61.7859 35.6481 61.9038 35.771L66.5809 40.6542ZM61.8713 40.4617H64.667L61.8713 37.5429V40.4617ZM65.5055 59.1725V41.7106H61.2469C60.902 41.7106 60.6224 41.431 60.6224 41.0861V36.8275H50.2493V59.1725H65.5055ZM52.6277 42.4481H58.7356C59.0805 42.4481 59.3601 42.1685 59.3601 41.8236C59.3601 41.4787 59.0805 41.1991 58.7356 41.1991H52.6277C52.2828 41.1991 52.0032 41.4787 52.0032 41.8236C52.0032 42.1685 52.2828 42.4481 52.6277 42.4481ZM63.127 45.3181H52.6277C52.2828 45.3181 52.0032 45.5977 52.0032 45.9427C52.0032 46.2876 52.2828 46.5672 52.6277 46.5672H63.127C63.472 46.5672 63.7516 46.2876 63.7516 45.9427C63.7516 45.5977 63.4719 45.3181 63.127 45.3181ZM63.127 49.4351H52.6277C52.2828 49.4351 52.0032 49.7147 52.0032 50.0596C52.0032 50.4045 52.2828 50.6842 52.6277 50.6842H63.127C63.472 50.6842 63.7516 50.4045 63.7516 50.0596C63.7516 49.7147 63.4719 49.4351 63.127 49.4351ZM63.127 53.5519H52.6277C52.2828 53.5519 52.0032 53.8315 52.0032 54.1764C52.0032 54.5213 52.2828 54.801 52.6277 54.801H63.127C63.472 54.801 63.7516 54.5213 63.7516 54.1764C63.7516 53.8315 63.4719 53.5519 63.127 53.5519Z" fill="#255B2D"/>
</g>
<defs>
<filter id="filter0_d_1_2365" x="0.981266" y="-0.00702477" width="136.037" height="136.037" filterUnits="userSpaceOnUse" color-interpolation-filters="sRGB">
<feFlood flood-opacity="0" result="BackgroundImageFix"/>
<feColorMatrix in="SourceAlpha" type="matrix" values="0 0 0 0 0 0 0 0 0 0 0 0 0 0 0 0 0 0 127 0" result="hardAlpha"/>
<feOffset dy="20.0117"/>
<feGaussianBlur stdDeviation="16.0094"/>
<feComposite in2="hardAlpha" operator="out"/>
<feColorMatrix type="matrix" values="0 0 0 0 0 0 0 0 0 0 0 0 0 0 0 0 0 0 0.03 0"/>
<feBlend mode="normal" in2="BackgroundImageFix" result="effect1_dropShadow_1_2365"/>
<feBlend mode="normal" in="SourceGraphic" in2="effect1_dropShadow_1_2365" result="shape"/>
</filter>
<clipPath id="clip0_1_2365">
<rect width="40" height="40" fill="white" transform="translate(49 28)"/>
</clipPath>
</defs>
</svg>
