<svg width="472" height="368" viewBox="0 0 472 368" fill="none" xmlns="http://www.w3.org/2000/svg">
<g clip-path="url(#clip0_1_5960)">
<mask id="mask0_1_5960" style="mask-type:luminance" maskUnits="userSpaceOnUse" x="0" y="0" width="472" height="368">
<path d="M0 0.742188H472V367.537H0V0.742188Z" fill="white"/>
</mask>
<g mask="url(#mask0_1_5960)">
<path d="M70.6839 280.004C70.6839 280.004 81.6998 280.411 80.5211 290.278C80.5211 290.278 80.0991 301.308 79.0222 335.171" stroke="#2DAA57" stroke-width="1.3373" stroke-miterlimit="10"/>
<path d="M156.976 151.538C156.976 151.538 168.879 157.912 173.23 173.337C173.23 173.337 156.074 150.185 134.027 158.727C134.027 158.727 146.848 144.888 156.976 151.538Z" fill="#2DAA57"/>
<path d="M160.148 153.707C160.148 153.707 135.264 142.051 130.651 186.929C127.828 214.331 115.604 233.103 87.4026 239.36C87.4026 239.36 29.7329 185.838 115.604 148.352C115.604 148.352 125.704 144.466 133.503 148.352C133.503 148.352 150.908 145.703 160.148 153.707Z" fill="#255B2D"/>
<path d="M131.262 149.736C128.046 152.239 124.946 154.873 121.89 157.565C118.834 160.257 115.807 163.008 112.926 165.889C110.03 168.77 107.193 171.71 104.53 174.824C101.881 177.938 99.2764 181.139 97.1518 184.719C92.8298 191.806 90.4433 199.941 89.1191 208.017C87.7803 216.122 87.0527 224.272 86.5288 232.406C86.0049 240.541 85.5829 248.675 85.2628 256.81C84.9135 264.945 84.637 273.079 84.3897 281.214L83.5747 305.617C83.2691 313.752 82.9781 321.887 83.2255 330.05C84.2732 321.959 84.768 313.825 85.19 305.69L86.5288 281.301C87.4601 265.046 88.0567 248.777 89.0317 232.552C89.5702 224.446 90.094 216.341 91.331 208.366C92.5242 200.392 94.7216 192.592 98.7962 185.665C100.761 182.187 103.191 178.942 105.708 175.799C108.24 172.641 110.962 169.629 113.741 166.675C119.3 160.767 125.194 155.135 131.262 149.707V149.736Z" fill="#4A9355"/>
<path d="M-4.90041 203.939C-4.90041 203.939 -13.0495 209.498 -14.9995 221.053C-14.9995 221.053 -4.34742 202.892 12.3438 207.374C12.3438 207.374 1.93904 198.322 -4.90041 203.939Z" fill="#2DAA57"/>
<path d="M-7.04045 205.76C-7.04045 205.76 10.131 195.341 16.985 227.588C21.1759 247.277 31.5224 259.952 52.5064 262.309C52.5064 262.309 90.2253 218.915 24.9012 198.397C24.9012 198.397 17.2614 196.359 11.8918 199.794C11.8918 199.794 -0.957718 199.226 -7.05502 205.76H-7.04045Z" fill="#255B2D"/>
<path d="M13.6386 200.625C18.499 203.055 23.0537 206.038 27.2738 209.414C31.4794 212.776 35.3502 216.618 38.2897 221.085C39.0319 222.191 39.6722 223.355 40.2979 224.534L42.0587 228.172L43.674 231.883C44.1979 233.12 44.649 234.4 45.1292 235.652C46.9773 240.716 48.3597 245.925 49.5239 251.193C51.8668 261.729 53.2929 272.497 54.9227 283.222L57.2219 299.346C57.9786 304.716 58.7353 310.1 59.9141 315.411C59.6812 309.969 59.0409 304.585 58.4152 299.186L56.5088 283.004C55.1846 272.221 53.7294 261.438 51.3138 250.786C50.0914 245.474 48.578 240.207 46.6281 235.084C46.1187 233.818 45.6385 232.538 45.0855 231.286L43.3975 227.546L41.5494 223.879C40.88 222.671 40.1815 221.463 39.3666 220.358C36.1942 215.832 32.1197 212.063 27.7541 208.789C23.3448 205.573 18.6154 202.822 13.6532 200.625H13.6386Z" fill="#4A9355"/>
<path d="M115.711 253.23C115.711 253.23 74.1213 253.506 68.0094 271.173C60.0495 268.597 56.2514 252.124 71.109 242.36C85.9666 232.595 115.478 246.565 115.696 253.215L115.711 253.23Z" fill="#255B2D"/>
<path d="M117.047 240.917C117.047 240.917 132.356 236.697 140.563 247.131C153.325 263.342 140.112 306.546 123.261 306.59C111.619 306.619 103.892 276.176 98.6385 267.096C91.3188 254.45 85.1051 244.089 71.1206 242.692C71.1206 242.692 91.7554 229.828 117.047 240.917Z" fill="#4A9355"/>
<path d="M121.701 244.728L120.668 243.564L119.533 242.516C119.126 242.211 118.733 241.876 118.311 241.614L117.671 241.221C117.481 241.119 117.234 240.988 117.088 240.93C117.219 240.901 118.267 240.625 119.882 240.406C120.173 240.639 120.465 240.886 120.756 241.119L121.978 242.327C122.356 242.764 122.706 243.2 123.069 243.637C123.448 244.059 123.724 244.554 124.044 245.019C124.335 245.499 124.699 245.936 124.932 246.46C125.427 247.464 126.023 248.424 126.387 249.487C126.795 250.534 127.231 251.553 127.479 252.645L127.915 254.245C127.988 254.507 128.075 254.784 128.133 255.046L128.279 255.861C128.454 256.952 128.672 258.043 128.817 259.135L129.065 262.423C129.196 263.515 129.138 264.621 129.123 265.712C129.108 266.804 129.123 267.91 129.065 269.001L128.774 272.275C128.657 273.367 128.628 274.458 128.41 275.535L127.886 278.765C127.697 279.842 127.58 280.934 127.304 281.981L125.849 288.355L127.057 281.938C127.289 280.875 127.362 279.784 127.508 278.707L127.901 275.477C128.075 274.4 128.061 273.308 128.133 272.232L128.294 268.986C128.294 267.91 128.25 266.818 128.221 265.741C128.177 264.664 128.192 263.573 128.032 262.511L127.668 259.295C127.479 258.232 127.231 257.185 127.013 256.137L126.853 255.351C126.795 255.089 126.693 254.842 126.62 254.58L126.14 253.052C125.863 252.019 125.398 251.058 124.976 250.083C124.597 249.079 124.001 248.206 123.506 247.275C123.273 246.795 122.924 246.402 122.618 245.965C122.298 245.543 122.036 245.092 121.672 244.714L121.701 244.728Z" fill="#255B2D"/>
<path d="M76.2266 252.02C76.2266 252.02 61.7182 256.996 67.2625 269.671C67.2625 269.671 68.3539 290.408 76.2266 332.245" stroke="#2DAA57" stroke-width="1.3373" stroke-miterlimit="10"/>
<path d="M61.1204 360.62H85.3787C87.8962 360.62 90.0353 358.815 90.4864 356.342L98.4609 311.492H48.0527L56.0272 356.342C56.4638 358.815 58.6175 360.62 61.135 360.62H61.1204Z" fill="#CCE2D8"/>
<path d="M46.9786 307.594H99.5114C101.03 307.594 102.262 308.825 102.262 310.344V317.198C102.262 318.717 101.03 319.948 99.5114 319.948H46.9786C45.4596 319.948 44.2282 318.717 44.2282 317.198V310.344C44.2282 308.825 45.4596 307.594 46.9786 307.594Z" fill="#A2C0B2"/>
<path d="M43.8464 289.272C43.8464 289.272 72.5139 280.832 80.3866 291.702C85.3197 288.282 84.5194 276.16 72.2665 272.537C60.0137 268.914 42.6241 284.644 43.8464 289.272Z" fill="#255B2D"/>
<path d="M40.2977 280.845C40.2977 280.845 28.8889 281.122 25.4109 289.999C19.9976 303.794 48.3013 324.109 48.3013 324.109C48.3013 324.109 48.0975 301.858 50.6587 294.757C55.9847 279.987 62.9406 276.392 72.2539 272.522C72.2539 272.522 55.3881 267.952 40.2977 280.831V280.845Z" fill="#4A9355"/>
<path d="M37.8925 284.439L38.3727 283.421L38.9402 282.46C39.1585 282.169 39.3622 281.849 39.595 281.587L39.9443 281.18C40.0607 281.078 40.1917 280.932 40.279 280.859C40.1771 280.859 39.4059 280.888 38.2417 281.078C38.0816 281.296 37.9361 281.529 37.7906 281.747L37.2085 282.838C37.0484 283.217 36.8883 283.595 36.7283 283.974C36.5536 284.337 36.4664 284.745 36.3499 285.138C36.2481 285.531 36.088 285.909 36.0298 286.316C35.8988 287.117 35.6805 287.903 35.666 288.703C35.6078 289.503 35.5059 290.304 35.5641 291.104L35.5932 292.297C35.5932 292.501 35.5932 292.69 35.6078 292.894L35.6805 293.491C35.7824 294.276 35.8697 295.062 35.9861 295.848L36.4954 298.162C36.6409 298.948 36.9029 299.69 37.1357 300.432C37.3831 301.189 37.5869 301.945 37.8488 302.687L38.7219 304.87C39.0275 305.598 39.2749 306.34 39.6387 307.038L40.6719 309.149C41.0211 309.847 41.3267 310.575 41.7342 311.244L44.0625 315.319L41.8943 311.157C41.5159 310.473 41.2394 309.745 40.9047 309.032L39.9588 306.893C39.6241 306.194 39.4058 305.438 39.1293 304.71L38.3436 302.513C38.1107 301.771 37.9216 301.014 37.7178 300.272C37.5141 299.515 37.2812 298.773 37.1794 298.016L36.7719 295.732C36.6846 294.96 36.641 294.189 36.5682 293.432L36.5246 292.85C36.5246 292.661 36.5246 292.472 36.5246 292.268V291.119C36.5246 290.347 36.641 289.591 36.7283 288.834C36.7719 288.063 37.0048 287.335 37.1649 286.593C37.2231 286.215 37.3831 285.88 37.4995 285.516C37.6305 285.167 37.7178 284.788 37.8925 284.468V284.439Z" fill="#255B2D"/>
<path d="M197.81 174.968C201.798 148.542 227.016 130.556 253.53 135.751C258.696 136.769 263.527 138.632 267.893 141.178C276.653 146.286 286.578 149.124 296.706 149.546C298.845 149.633 300.984 149.837 303.152 150.172C325.606 153.562 343.2 169.133 350.228 189.171C354.041 200.027 362.248 208.918 373.06 212.847C399.341 222.393 416.309 249.838 411.07 279.015C405.584 309.56 376.815 330.922 346.008 327.343C336.826 326.28 328.429 320.503 321.182 312.951C302.687 293.684 275.693 285.811 249.223 289.333C247.811 289.522 246.443 289.595 245.177 289.551C216.582 288.416 196.093 262.906 200.241 235.403C200.342 234.719 200.459 234.035 200.59 233.366C203.035 220.88 203.107 207.958 199.353 195.792C197.345 189.244 196.719 182.157 197.81 174.939V174.968Z" fill="black"/>
<path d="M218.039 180.266C218.971 185.738 216.264 190.773 212.015 191.486C207.765 192.199 203.56 188.343 202.643 182.871C201.726 177.399 204.418 172.364 208.668 171.651C212.917 170.938 217.122 174.795 218.039 180.266Z" fill="#FFE0C6"/>
<path d="M224.178 179.232C225.357 186.232 221.923 192.649 216.495 193.566C211.067 194.483 205.697 189.549 204.519 182.564C203.34 175.565 206.774 169.148 212.202 168.231C217.63 167.314 223 172.247 224.178 179.232Z" fill="white"/>
<path d="M201.55 347.833C201.55 347.833 180.216 288.839 185.775 261.146C189.209 244.062 206.308 216.035 239.443 216.035C261.548 216.035 302.002 230.776 299.266 270.605C297.666 293.874 293.155 321.828 271.967 347.877C271.967 347.877 234.495 365.761 201.564 347.833H201.55Z" fill="#CCE2D8"/>
<path d="M219.39 302.794C217.557 275.757 216.233 240.177 212.988 223.064C220.293 218.771 229.082 216.021 239.458 216.035C247.127 216.035 257.022 217.825 266.539 221.812C263.323 237.529 260.253 253.259 258.244 269.179C255.931 287.529 255.596 305.981 255.785 324.448C255.887 333.979 256.193 343.496 256.687 353.013C247.418 355.298 234.845 356.986 221.646 354.716C222.301 337.777 220.526 319.718 219.39 302.794Z" fill="#EFFFE8"/>
<path opacity="0.1" d="M241.232 319.5C253.15 313.621 264.282 305.283 274.716 297.119C284.073 289.799 293.11 281.563 299.207 271.289C297.563 294.412 292.935 322.076 271.951 347.862C271.951 347.862 234.48 365.746 201.548 347.818C201.548 347.818 199.162 341.212 196.193 331.403C211.749 330.05 227.029 326.514 241.232 319.5Z" fill="#0073BA"/>
<path d="M239.445 233.688C245.848 233.688 251.043 228.492 251.043 222.09L248.133 180.922H230.772L227.862 222.09C227.862 228.492 233.057 233.688 239.46 233.688H239.445Z" fill="#FFA587"/>
<path d="M230.099 190.338L248.682 188.664L249.352 198.225C247.751 208.848 240.329 220.315 230.172 220.315C229.43 220.315 228.702 220.242 227.989 220.126L230.099 190.323V190.338Z" fill="#F5876E"/>
<path d="M231.455 215.991C241.452 214.216 249.834 201.134 249.95 190.991C250.052 182.158 247.273 169.134 247.273 169.134C247.273 169.134 215.884 161.96 209.889 169.134C205.479 174.402 211.606 190.045 213.57 196.637C216.466 206.358 227.104 216.763 231.469 215.991H231.455Z" fill="#FFB49B"/>
<path d="M255.685 179.119C256.485 183.586 253.546 187.835 249.137 188.621L246.27 172.454C250.679 171.668 254.899 174.651 255.7 179.119H255.685Z" fill="#FFA587"/>
<path d="M207.836 170.706L238.337 165.293L239.53 172.001C242.673 171.623 247.563 171.39 248.13 174.577C248.276 175.407 251.23 180.151 251.055 180.922C250.255 180.776 244.536 178.972 243.823 178.637C242.295 177.895 240.578 177.764 238.904 178.055C235.252 178.681 231.643 177.997 228.558 176.309C224.25 173.951 219.113 173.297 214.486 174.897C213.511 175.232 212.492 175.508 211.444 175.683C210.586 175.829 209.64 175.916 208.781 175.96L207.85 170.721L207.836 170.706Z" fill="#FFA587"/>
<path d="M204.826 125.682C211.767 124.648 218.476 126.758 223.496 130.949C228.749 135.344 235.545 137.207 242.399 137.323C242.486 137.323 242.559 137.323 242.647 137.323C250.272 137.541 257.213 142.475 259.876 149.62C260.225 150.565 260.502 151.511 260.706 152.457C261.375 155.586 262.525 158.656 264.518 161.174C265.435 162.353 266.09 163.735 266.366 165.292C267.327 170.691 263.427 175.915 257.664 176.934C255.278 177.356 252.949 176.992 250.97 176.017C249.151 175.129 247.114 174.969 245.12 175.318C240.769 176.061 236.491 175.26 232.824 173.238C227.716 170.429 221.604 169.658 216.089 171.564C214.925 171.972 213.717 172.292 212.466 172.51C199.34 174.838 186.81 165.889 184.831 152.617C182.983 140.204 192.413 127.515 204.826 125.667V125.682Z" fill="black"/>
<path d="M246.368 348.445H129.108C126.78 348.445 125.15 350.759 125.936 352.956L128.031 358.835C128.511 360.174 129.777 361.076 131.204 361.076H248.464C250.792 361.076 252.422 358.763 251.636 356.565L249.541 350.686C249.06 349.348 247.794 348.445 246.368 348.445Z" fill="#E6DCDC"/>
<path d="M195.977 238.734C195.977 238.734 166.626 282.041 158.942 299.635C147.912 324.897 130.551 351.891 130.551 351.891C130.551 351.891 159.175 351.018 171.108 335.927C171.108 335.927 173.436 325.552 174.993 314.259C176.463 303.593 200.168 282.129 200.168 282.129L195.962 238.734H195.977Z" fill="#CCE2D8"/>
<path d="M101.271 361.075H209.363L191.319 277.387H83.2263L101.271 361.075Z" fill="#888585"/>
<path d="M95.4524 361.075H205L186.955 277.387H77.4079L95.4524 361.075Z" fill="#AFAFAF"/>
<path d="M129.456 321.356C128.268 314.857 132.573 308.626 139.072 307.438C145.57 306.25 151.801 310.555 152.99 317.054C154.178 323.552 149.872 329.783 143.374 330.971C136.875 332.159 130.644 327.854 129.456 321.356Z" fill="white"/>
<path d="M35.6847 360.625H371.633V371.51H35.6847V360.625Z" fill="#212121"/>
<path d="M205.786 360.42C203.443 360.42 202.846 357.175 205.044 356.345C212.713 353.464 223.816 349.651 235.254 346.887L253.997 343.176L255.117 354.046L242.122 360.42H205.786Z" fill="#FFB49B"/>
<path d="M241.788 345.591L253.997 343.176L255.117 354.046L242.122 360.42C244.247 355.458 246.27 350.466 241.788 345.591Z" fill="#FFA587"/>
<path d="M283.523 232.143C283.523 232.143 329.434 287.019 337.263 314.261C342.051 330.923 340.232 342.361 323.977 353.493C316.716 358.47 308.072 360.711 299.268 360.652H250.664C248.54 360.638 246.75 359.124 246.269 357.043C246.269 357.043 243.999 336.525 258.129 331.199C271.343 326.222 295.921 324.389 298.002 308.338C299.079 300.029 269.553 261.859 269.553 261.859C269.553 261.859 272.696 238.648 283.537 232.129L283.523 232.143Z" fill="#CCE2D8"/>
<path d="M225.242 132.364C224.194 131.185 222.928 130.195 221.429 129.453H227.876C241.846 129.453 253.211 140.818 253.211 154.788V169.529H250.301V154.788C250.301 142.419 240.245 132.364 227.876 132.364H225.242Z" fill="#FFE0C6"/>
<path d="M251.755 190.992C246.249 190.992 241.786 185.239 241.786 178.142C241.786 171.046 246.249 165.293 251.755 165.293C257.26 165.293 261.723 171.046 261.723 178.142C261.723 185.239 257.26 190.992 251.755 190.992Z" fill="white"/>
<path d="M248.013 178.141C248.013 183.7 251.506 188.197 255.813 188.197C260.121 188.197 263.613 183.7 263.613 178.141C263.613 172.583 260.121 168.086 255.813 168.086C251.506 168.086 248.013 172.583 248.013 178.141Z" fill="#FFE0C6"/>
<path d="M196.15 54.4356C193.778 49.8662 192.425 44.6857 192.425 39.1996C192.425 20.9223 207.254 6.09375 225.531 6.09375C243.808 6.09375 258.637 20.9223 258.637 39.1996C258.637 57.477 243.808 72.3055 225.531 72.3055C219.303 72.3055 213.467 70.5883 208.49 67.5906H196.136V54.4501L196.15 54.4356Z" stroke="#255B2D" stroke-width="1.3373" stroke-miterlimit="10"/>
<path d="M289.779 117.01C287.407 112.44 286.054 107.26 286.054 101.774C286.054 83.4965 300.882 68.668 319.16 68.668C337.437 68.668 352.266 83.4965 352.266 101.774C352.266 120.051 337.437 134.88 319.16 134.88C312.931 134.88 307.096 133.163 302.119 130.165H289.765V117.024L289.779 117.01Z" stroke="#255B2D" stroke-width="1.3373" stroke-miterlimit="10"/>
<path d="M152.493 111.583C154.865 107.014 156.219 101.833 156.219 96.3324C156.219 78.0551 141.39 63.2266 123.113 63.2266C104.836 63.2266 90.007 78.0551 90.007 96.3324C90.007 114.61 104.836 129.438 123.113 129.438C129.341 129.438 135.177 127.721 140.153 124.723H152.508V111.583H152.493Z" stroke="#255B2D" stroke-width="1.3373" stroke-miterlimit="10"/>
<path d="M313.98 107.957C313.98 106.793 314.111 105.731 314.387 104.771C314.649 103.81 315.086 102.922 315.697 102.108C316.308 101.293 317.123 100.565 318.156 99.9393C318.724 99.6046 319.393 99.2263 320.164 98.8188C320.935 98.3968 321.678 97.9166 322.376 97.3491C323.075 96.7815 323.671 96.1267 324.166 95.3554C324.646 94.5842 324.894 93.6965 324.894 92.6633C324.894 91.5719 324.632 90.6406 324.093 89.8984C323.555 89.1563 322.871 88.5887 322.056 88.2104C321.241 87.832 320.339 87.6429 319.364 87.6429C318.331 87.6429 317.37 87.8611 316.497 88.2977C315.624 88.7343 314.867 89.2872 314.227 89.9566C313.587 90.626 313.048 91.3391 312.612 92.0667L308.988 89.6074C309.599 88.2249 310.429 87.0608 311.506 86.0858C312.583 85.1108 313.805 84.3687 315.173 83.8739C316.555 83.3646 317.996 83.1172 319.495 83.1172C320.732 83.1172 321.969 83.3064 323.191 83.6847C324.413 84.0631 325.519 84.6597 326.48 85.4601C327.455 86.2604 328.226 87.2645 328.823 88.4869C329.405 89.6947 329.71 91.1645 329.71 92.8525C329.71 94.0166 329.565 95.0207 329.288 95.8793C328.997 96.7233 328.59 97.48 328.051 98.1494C327.513 98.8188 326.887 99.4009 326.189 99.9248C325.49 100.434 324.704 100.929 323.875 101.395C323.031 101.889 322.216 102.399 321.416 102.922C320.615 103.432 319.946 104.072 319.408 104.843C318.869 105.615 318.607 106.662 318.607 107.987H313.98V107.957ZM314.125 119.075V112.731H318.709V119.075H314.125Z" fill="#255B2D"/>
<path d="M235.37 42.4742C233.562 42.4742 232.096 41.0083 232.096 39.2C232.096 37.3917 233.562 35.9258 235.37 35.9258C237.179 35.9258 238.645 37.3917 238.645 39.2C238.645 41.0083 237.179 42.4742 235.37 42.4742Z" fill="#255B2D"/>
<path d="M225.546 42.4742C223.738 42.4742 222.272 41.0083 222.272 39.2C222.272 37.3917 223.738 35.9258 225.546 35.9258C227.354 35.9258 228.82 37.3917 228.82 39.2C228.82 41.0083 227.354 42.4742 225.546 42.4742Z" fill="#255B2D"/>
<path d="M215.726 42.4742C213.918 42.4742 212.452 41.0083 212.452 39.2C212.452 37.3917 213.918 35.9258 215.726 35.9258C217.534 35.9258 219 37.3917 219 39.2C219 41.0083 217.534 42.4742 215.726 42.4742Z" fill="#255B2D"/>
<path d="M116.267 92.7507L119.192 89.8258C120.473 88.5452 120.473 86.4497 119.192 85.1691L114.885 80.8472C113.604 79.5666 111.508 79.5666 110.228 80.8472L109.442 81.633C106.241 84.8344 105.731 89.8548 108.263 93.5947C113.357 101.133 119.672 107.448 127.21 112.541C130.95 115.074 135.985 114.564 139.172 111.363L139.958 110.577C141.238 109.296 141.238 107.201 139.958 105.92L135.65 101.598C134.37 100.318 132.274 100.318 130.994 101.598L128.069 104.523C123.601 101.133 119.672 97.2036 116.282 92.7362L116.267 92.7507Z" fill="#255B2D"/>
</g>
</g>
<defs>
<clipPath id="clip0_1_5960">
<rect width="472" height="366.795" fill="white" transform="matrix(-1 0 0 1 472 0.742188)"/>
</clipPath>
</defs>
</svg>
